<?xml version="1.0" encoding="utf-8"?>
<!-- Generator: Adobe Illustrator 27.4.0, SVG Export Plug-In . SVG Version: 6.00 Build 0)  -->
<svg version="1.1" id="Layer_1" xmlns="http://www.w3.org/2000/svg" xmlns:xlink="http://www.w3.org/1999/xlink" x="0px" y="0px"
	 width="32px" height="32px" viewBox="0 0 32 32" style="enable-background:new 0 0 32 32;" xml:space="preserve">
<style type="text/css">
	.st0{fill-rule:evenodd;clip-rule:evenodd;fill:#4700CC;}
</style>
<path class="st0" d="M21.3,20.8h1.9v-12l-3.7,4.5c1.2,1.6,1.9,3.7,1.9,5.9C21.5,19.7,21.4,20.2,21.3,20.8z M20.9,22.5h2.4V29
	l6.7-8.2h-5.1V4l-6.5,7.9c-1.7-1.7-4.1-2.7-6.7-2.7C6.4,9.2,2,13.7,2,19.1c0,5.4,4.4,9.9,9.7,9.9C15.9,29,19.5,26.3,20.9,22.5z
	 M19.7,20.8L19.7,20.8l-6.3,0l5.1-6.2l0,0c0.9,1.3,1.4,2.9,1.4,4.6C19.9,19.7,19.8,20.2,19.7,20.8L19.7,20.8z M17.4,13.2
	c-1.5-1.4-3.5-2.3-5.7-2.3c-4.5,0-8.1,3.7-8.1,8.3s3.7,8.3,8.1,8.3c3.3,0,6.2-2,7.4-4.9H9.8L17.4,13.2L17.4,13.2z M24.9,22.5h1.5
	l-1.5,1.8V22.5z"/>
</svg>
