<svg width="30" height="32" viewBox="0 0 30 32" fill="none" xmlns="http://www.w3.org/2000/svg">
<path d="M0.997269 25.1167C7.21973 33.6953 19.9288 33.7633 26.1688 25.1825C31.223 18.1907 29.4981 8.44055 22.3934 3.56493C18.274 0.703562 13.0038 0.0383563 8.28604 1.72055C5.40056 2.76055 2.86905 4.64329 0.998365 7.08164L0.93042 7.03343C1.04658 6.86027 1.35124 6.43726 1.46412 6.27069C1.58247 6.11397 1.9211 5.70192 2.04604 5.54192C2.44275 5.08822 2.90412 4.60384 3.34138 4.19397C3.7896 3.78959 4.30467 3.35781 4.79234 3.00603C5.28768 2.65863 5.85535 2.2948 6.38138 2.0011C7.09809 1.61315 7.90576 1.24384 8.67508 0.975343C13.4871 -0.746301 19.0071 0.0263018 23.1441 3.03671C27.291 5.99233 29.8017 11.0148 29.7414 16.0997C29.6778 27.1967 18.5008 34.8778 8.14247 30.8537C7.58905 30.6334 6.97754 30.3507 6.44713 30.0723C5.92439 29.7896 5.35234 29.4345 4.85809 29.097C4.37261 28.754 3.84658 28.3353 3.39617 27.943C3.17152 27.749 2.94138 27.5036 2.71891 27.3041C2.58083 27.1671 2.22357 26.7748 2.0811 26.6268C1.85426 26.3507 1.50247 25.9529 1.29973 25.6647L0.93042 25.166L0.997269 25.1167Z" fill="#00AFE7"/>
<path d="M8.48996 8.56348H12.3376L18.4691 23.0709H14.1886L13.1595 20.478H7.58256L6.55352 23.0709H2.37817L8.48996 8.56348ZM11.988 17.3711L10.3837 13.2966L8.75845 17.3711H11.988Z" fill="#1A2A55"/>
<path d="M8.48996 8.56348H12.3376L18.4691 23.0709H14.1886L13.1595 20.478H7.58365L6.55461 23.0709H2.37817L8.48996 8.56348ZM11.988 17.3711L10.3826 13.2966L8.75735 17.3711H11.988Z" fill="#1A2A55"/>
<mask id="mask0_3481_20382" style="mask-type:luminance" maskUnits="userSpaceOnUse" x="2" y="8" width="17" height="16">
<path d="M8.48996 8.56348H12.3376L18.4691 23.0709H14.1886L13.1595 20.478H7.58365L6.55461 23.0709H2.37817L8.48996 8.56348ZM11.988 17.3711L10.3826 13.2966L8.75735 17.3711H11.988Z" fill="white"/>
</mask>
<g mask="url(#mask0_3481_20382)">
<path d="M2.89067 12.9018H2.76136V9.97026L1.98218 9.19108V0.817383H2.11259V9.13738L2.89067 9.91656V12.9018Z" fill="white"/>
<path d="M4.44798 9.16444H4.31867V5.24444L5.09675 4.46526V2.18361L4.35593 1.44279H3.75977V1.31348H4.40963L5.22716 2.12991V4.51896L4.44798 5.29813V9.16444Z" fill="white"/>
<path d="M4.40973 13.901H3.60425V13.7717H4.35603L5.09685 13.0309V6.82812H5.22726V13.0846L4.40973 13.901Z" fill="white"/>
<path d="M4.44805 12.2785H4.31874V11.5267L3.53956 10.7475V7.63302L2.76147 6.85494V4.4648L3.55819 3.66699L3.65024 3.75905L2.89079 4.5185V6.80124L3.66997 7.57932V10.6938L4.44805 11.473V12.2785Z" fill="white"/>
<path d="M2.82623 13.2784C2.70459 13.2784 2.60596 13.1798 2.60596 13.0582C2.60596 12.9365 2.70459 12.8379 2.82623 12.8379C2.94788 12.8379 3.04651 12.9365 3.04651 13.0582C3.04651 13.1787 2.94788 13.2784 2.82623 13.2784ZM2.82623 12.9672C2.77582 12.9672 2.73527 13.0078 2.73527 13.0582C2.73527 13.1086 2.77582 13.1491 2.82623 13.1491C2.87664 13.1491 2.91719 13.1086 2.91719 13.0582C2.91719 13.0078 2.87664 12.9672 2.82623 12.9672Z" fill="white"/>
<path d="M3.60431 13.2784C3.48266 13.2784 3.38403 13.1798 3.38403 13.0582C3.38403 12.9365 3.48266 12.8379 3.60431 12.8379C3.72595 12.8379 3.82458 12.9365 3.82458 13.0582C3.82568 13.1787 3.72595 13.2784 3.60431 13.2784ZM3.60431 12.9672C3.5539 12.9672 3.51335 13.0078 3.51335 13.0582C3.51335 13.1086 3.5539 13.1491 3.60431 13.1491C3.65472 13.1491 3.69527 13.1086 3.69527 13.0582C3.69527 13.0078 3.65472 12.9672 3.60431 12.9672Z" fill="white"/>
<path d="M3.60431 12.4991C3.48266 12.4991 3.38403 12.4005 3.38403 12.2789C3.38403 12.1572 3.48266 12.0586 3.60431 12.0586C3.72595 12.0586 3.82458 12.1572 3.82458 12.2789C3.82568 12.4005 3.72595 12.4991 3.60431 12.4991ZM3.60431 12.1879C3.5539 12.1879 3.51335 12.2285 3.51335 12.2789C3.51335 12.3293 3.5539 12.3698 3.60431 12.3698C3.65472 12.3698 3.69527 12.3293 3.69527 12.2789C3.69527 12.2285 3.65472 12.1879 3.60431 12.1879Z" fill="white"/>
<path d="M4.37457 13.2784C4.25293 13.2784 4.1543 13.1798 4.1543 13.0582C4.1543 12.9365 4.25293 12.8379 4.37457 12.8379C4.49621 12.8379 4.59484 12.9365 4.59484 13.0582C4.59484 13.1787 4.49621 13.2784 4.37457 13.2784ZM4.37457 12.9672C4.32416 12.9672 4.28361 13.0078 4.28361 13.0582C4.28361 13.1086 4.32416 13.1491 4.37457 13.1491C4.42498 13.1491 4.46553 13.1086 4.46553 13.0582C4.46443 13.0078 4.42389 12.9672 4.37457 12.9672Z" fill="white"/>
<path d="M5.15704 14.0607C5.0354 14.0607 4.93677 13.962 4.93677 13.8404C4.93677 13.7187 5.0354 13.6201 5.15704 13.6201C5.27868 13.6201 5.37732 13.7187 5.37732 13.8404C5.37841 13.962 5.27868 14.0607 5.15704 14.0607ZM5.15704 13.7494C5.10663 13.7494 5.06608 13.79 5.06608 13.8404C5.06608 13.8908 5.10663 13.9313 5.15704 13.9313C5.20745 13.9313 5.248 13.8908 5.248 13.8404C5.248 13.79 5.20745 13.7494 5.15704 13.7494Z" fill="white"/>
<path d="M4.38336 9.54016C4.26172 9.54016 4.16309 9.44153 4.16309 9.31988C4.16309 9.19824 4.26172 9.09961 4.38336 9.09961C4.505 9.09961 4.60363 9.19824 4.60363 9.31988C4.60363 9.44153 4.505 9.54016 4.38336 9.54016ZM4.38336 9.22892C4.33295 9.22892 4.2924 9.26947 4.2924 9.31988C4.2924 9.37029 4.33295 9.41084 4.38336 9.41084C4.43377 9.41084 4.47432 9.37029 4.47432 9.31988C4.47432 9.26947 4.43377 9.22892 4.38336 9.22892Z" fill="white"/>
<path d="M2.82623 9.54016C2.70459 9.54016 2.60596 9.44153 2.60596 9.31988C2.60596 9.19824 2.70459 9.09961 2.82623 9.09961C2.94788 9.09961 3.04651 9.19824 3.04651 9.31988C3.04651 9.44153 2.94788 9.54016 2.82623 9.54016ZM2.82623 9.22892C2.77582 9.22892 2.73527 9.26947 2.73527 9.31988C2.73527 9.37029 2.77582 9.41084 2.82623 9.41084C2.87664 9.41084 2.91719 9.37029 2.91719 9.31988C2.91719 9.26947 2.87664 9.22892 2.82623 9.22892Z" fill="white"/>
<path d="M3.60413 13.8362C3.60413 13.9568 3.5066 14.0543 3.38605 14.0543C3.2655 14.0543 3.16797 13.9568 3.16797 13.8362C3.16797 13.7157 3.2655 13.6182 3.38605 13.6182C3.5066 13.6182 3.60413 13.7157 3.60413 13.8362Z" fill="white"/>
<path d="M3.04432 13.8362C3.04432 13.9568 2.94678 14.0543 2.82624 14.0543C2.70569 14.0543 2.60815 13.9568 2.60815 13.8362C2.60815 13.7157 2.70569 13.6182 2.82624 13.6182C2.94678 13.6182 3.04432 13.7157 3.04432 13.8362Z" fill="white"/>
<path d="M4.60145 12.4974C4.60145 12.6179 4.50391 12.7155 4.38337 12.7155C4.26282 12.7155 4.16528 12.6179 4.16528 12.4974C4.16528 12.3768 4.26282 12.2793 4.38337 12.2793C4.50391 12.2793 4.60145 12.3768 4.60145 12.4974Z" fill="white"/>
<path d="M5.02015 10.7298C5.02015 10.8503 4.92261 10.9479 4.80207 10.9479C4.68152 10.9479 4.58398 10.8503 4.58398 10.7298C4.58398 10.6093 4.68152 10.5117 4.80207 10.5117C4.92261 10.5117 5.02015 10.6093 5.02015 10.7298Z" fill="white"/>
<path d="M3.82239 11.4935C3.82239 11.614 3.72486 11.7116 3.60431 11.7116C3.48376 11.7116 3.38623 11.614 3.38623 11.4935C3.38623 11.3729 3.48376 11.2754 3.60431 11.2754C3.72486 11.2754 3.82239 11.3729 3.82239 11.4935Z" fill="white"/>
<path d="M2.62547 13.7275L1.98218 13.0843V10.9473H2.11259V13.0306L2.71752 13.6355L2.62547 13.7275Z" fill="white"/>
<path d="M2.89189 7.66406H2.76147V9.16324H2.89189V7.66406Z" fill="white"/>
<path d="M4.16415 12.9922H3.75977V13.1226H4.16415V12.9922Z" fill="white"/>
<path d="M4.03277 10.1681C3.91113 10.1681 3.8125 10.0695 3.8125 9.94781C3.8125 9.82617 3.91113 9.72754 4.03277 9.72754C4.15442 9.72754 4.25305 9.82617 4.25305 9.94781C4.25414 10.0684 4.15442 10.1681 4.03277 10.1681ZM4.03277 9.85685C3.98236 9.85685 3.94182 9.8974 3.94182 9.94781C3.94182 9.99822 3.98236 10.0388 4.03277 10.0388C4.08319 10.0388 4.12373 9.99822 4.12373 9.94781C4.12373 9.8974 4.08319 9.85685 4.03277 9.85685Z" fill="white"/>
<path d="M4.80304 10.1681C4.68139 10.1681 4.58276 10.0695 4.58276 9.94781C4.58276 9.82617 4.68139 9.72754 4.80304 9.72754C4.92468 9.72754 5.02331 9.82617 5.02331 9.94781C5.02331 10.0684 4.92468 10.1681 4.80304 10.1681ZM4.80304 9.85685C4.75263 9.85685 4.71208 9.8974 4.71208 9.94781C4.71208 9.99822 4.75263 10.0388 4.80304 10.0388C4.85345 10.0388 4.894 9.99822 4.894 9.94781C4.894 9.8974 4.85235 9.85685 4.80304 9.85685Z" fill="white"/>
<path d="M4.59262 9.88184H4.18823V10.0122H4.59262V9.88184Z" fill="white"/>
<path d="M6.53007 12.9018H6.39966V9.97026L5.62158 9.19108V0.817383H5.7509V9.13738L6.53007 9.91656V12.9018Z" fill="white"/>
<path d="M8.08739 9.16444H7.95698V5.24444L8.73616 4.46526V2.18361L7.99533 1.44279H7.39917V1.31348H8.04903L8.86547 2.12991V4.51896L8.08739 5.29813V9.16444Z" fill="white"/>
<path d="M8.04913 13.901H7.24365V13.7717H7.99543L8.73626 13.0309V6.82812H8.86557V13.0846L8.04913 13.901Z" fill="white"/>
<path d="M8.08733 12.2785H7.95692V11.5267L7.17884 10.7475V7.63302L6.39966 6.85494V4.4648L7.19747 3.66699L7.28952 3.75905L6.53007 4.5185V6.80124L7.30815 7.57932V10.6938L8.08733 11.473V12.2785Z" fill="white"/>
<path d="M6.46441 13.2784C6.34277 13.2784 6.24414 13.1798 6.24414 13.0582C6.24414 12.9365 6.34277 12.8379 6.46441 12.8379C6.58606 12.8379 6.68469 12.9365 6.68469 13.0582C6.68578 13.1787 6.58715 13.2784 6.46441 13.2784ZM6.46441 12.9672C6.414 12.9672 6.37346 13.0078 6.37346 13.0582C6.37346 13.1086 6.414 13.1491 6.46441 13.1491C6.51482 13.1491 6.55537 13.1086 6.55537 13.0582C6.55537 13.0078 6.51482 12.9672 6.46441 12.9672Z" fill="white"/>
<path d="M7.24371 13.2784C7.12207 13.2784 7.02344 13.1798 7.02344 13.0582C7.02344 12.9365 7.12207 12.8379 7.24371 12.8379C7.36536 12.8379 7.46399 12.9365 7.46399 13.0582C7.46399 13.1787 7.36536 13.2784 7.24371 13.2784ZM7.24371 12.9672C7.1933 12.9672 7.15275 13.0078 7.15275 13.0582C7.15275 13.1086 7.1933 13.1491 7.24371 13.1491C7.29412 13.1491 7.33467 13.1086 7.33467 13.0582C7.33467 13.0078 7.29412 12.9672 7.24371 12.9672Z" fill="white"/>
<path d="M7.24371 12.4991C7.12207 12.4991 7.02344 12.4005 7.02344 12.2789C7.02344 12.1572 7.12207 12.0586 7.24371 12.0586C7.36536 12.0586 7.46399 12.1572 7.46399 12.2789C7.46399 12.4005 7.36536 12.4991 7.24371 12.4991ZM7.24371 12.1879C7.1933 12.1879 7.15275 12.2285 7.15275 12.2789C7.15275 12.3293 7.1933 12.3698 7.24371 12.3698C7.29412 12.3698 7.33467 12.3293 7.33467 12.2789C7.33467 12.2285 7.29412 12.1879 7.24371 12.1879Z" fill="white"/>
<path d="M8.013 13.2784C7.89135 13.2784 7.79272 13.1798 7.79272 13.0582C7.79272 12.9365 7.89135 12.8379 8.013 12.8379C8.13464 12.8379 8.23327 12.9365 8.23327 13.0582C8.23437 13.1787 8.13464 13.2784 8.013 13.2784ZM8.013 12.9672C7.96259 12.9672 7.92204 13.0078 7.92204 13.0582C7.92204 13.1086 7.96259 13.1491 8.013 13.1491C8.06341 13.1491 8.10396 13.1086 8.10396 13.0582C8.10396 13.0078 8.06341 12.9672 8.013 12.9672Z" fill="white"/>
<path d="M8.79645 14.0607C8.6748 14.0607 8.57617 13.962 8.57617 13.8404C8.57617 13.7187 8.6748 13.6201 8.79645 13.6201C8.91809 13.6201 9.01672 13.7187 9.01672 13.8404C9.01672 13.962 8.91809 14.0607 8.79645 14.0607ZM8.79645 13.7494C8.74604 13.7494 8.70549 13.79 8.70549 13.8404C8.70549 13.8908 8.74604 13.9313 8.79645 13.9313C8.84686 13.9313 8.88741 13.8908 8.88741 13.8404C8.88741 13.79 8.84576 13.7494 8.79645 13.7494Z" fill="white"/>
<path d="M8.02179 9.54016C7.90014 9.54016 7.80151 9.44153 7.80151 9.31988C7.80151 9.19824 7.90014 9.09961 8.02179 9.09961C8.14343 9.09961 8.24206 9.19824 8.24206 9.31988C8.24316 9.44153 8.14453 9.54016 8.02179 9.54016ZM8.02179 9.22892C7.97138 9.22892 7.93083 9.26947 7.93083 9.31988C7.93083 9.37029 7.97138 9.41084 8.02179 9.41084C8.0722 9.41084 8.11275 9.37029 8.11275 9.31988C8.11275 9.26947 8.0722 9.22892 8.02179 9.22892Z" fill="white"/>
<path d="M6.46441 9.54016C6.34277 9.54016 6.24414 9.44153 6.24414 9.31988C6.24414 9.19824 6.34277 9.09961 6.46441 9.09961C6.58606 9.09961 6.68469 9.19824 6.68469 9.31988C6.68578 9.44153 6.58715 9.54016 6.46441 9.54016ZM6.46441 9.22892C6.414 9.22892 6.37346 9.26947 6.37346 9.31988C6.37346 9.37029 6.414 9.41084 6.46441 9.41084C6.51482 9.41084 6.55537 9.37029 6.55537 9.31988C6.55537 9.26947 6.51482 9.22892 6.46441 9.22892Z" fill="white"/>
<path d="M7.24354 13.8362C7.24354 13.9568 7.146 14.0543 7.02546 14.0543C6.90491 14.0543 6.80737 13.9568 6.80737 13.8362C6.80737 13.7157 6.90491 13.6182 7.02546 13.6182C7.146 13.6182 7.24354 13.7157 7.24354 13.8362Z" fill="white"/>
<path d="M6.6825 13.8362C6.6825 13.9568 6.58497 14.0543 6.46442 14.0543C6.34387 14.0543 6.24634 13.9568 6.24634 13.8362C6.24634 13.7157 6.34387 13.6182 6.46442 13.6182C6.58497 13.6182 6.6825 13.7157 6.6825 13.8362Z" fill="white"/>
<path d="M8.23988 12.4974C8.23988 12.6179 8.14234 12.7155 8.02179 12.7155C7.90124 12.7155 7.80371 12.6179 7.80371 12.4974C7.80371 12.3768 7.90124 12.2793 8.02179 12.2793C8.14234 12.2793 8.23988 12.3768 8.23988 12.4974Z" fill="white"/>
<path d="M8.65955 10.7298C8.65955 10.8503 8.56202 10.9479 8.44147 10.9479C8.32092 10.9479 8.22339 10.8503 8.22339 10.7298C8.22339 10.6093 8.32092 10.5117 8.44147 10.5117C8.56202 10.5117 8.65955 10.6093 8.65955 10.7298Z" fill="white"/>
<path d="M7.4618 11.4935C7.4618 11.614 7.36426 11.7116 7.24372 11.7116C7.12317 11.7116 7.02563 11.614 7.02563 11.4935C7.02563 11.3729 7.12317 11.2754 7.24372 11.2754C7.36426 11.2754 7.4618 11.3729 7.4618 11.4935Z" fill="white"/>
<path d="M5.90443 10.7298C5.90443 10.8503 5.80689 10.9479 5.68634 10.9479C5.5658 10.9479 5.46826 10.8503 5.46826 10.7298C5.46826 10.6093 5.5658 10.5117 5.68634 10.5117C5.80689 10.5117 5.90443 10.6093 5.90443 10.7298Z" fill="white"/>
<path d="M6.26487 13.7275L5.62158 13.0843V10.9473H5.7509V13.0306L6.35692 13.6355L6.26487 13.7275Z" fill="white"/>
<path d="M6.53007 7.66406H6.39966V9.16324H6.53007V7.66406Z" fill="white"/>
<path d="M7.80355 12.9922H7.39917V13.1226H7.80355V12.9922Z" fill="white"/>
<path d="M7.67218 10.1681C7.55053 10.1681 7.4519 10.0695 7.4519 9.94781C7.4519 9.82617 7.55053 9.72754 7.67218 9.72754C7.79382 9.72754 7.89245 9.82617 7.89245 9.94781C7.89245 10.0684 7.79382 10.1681 7.67218 10.1681ZM7.67218 9.85685C7.62177 9.85685 7.58122 9.8974 7.58122 9.94781C7.58122 9.99822 7.62177 10.0388 7.67218 10.0388C7.72259 10.0388 7.76314 9.99822 7.76314 9.94781C7.76314 9.8974 7.72259 9.85685 7.67218 9.85685Z" fill="white"/>
<path d="M8.44147 10.1681C8.31982 10.1681 8.22119 10.0695 8.22119 9.94781C8.22119 9.82617 8.31982 9.72754 8.44147 9.72754C8.56311 9.72754 8.66174 9.82617 8.66174 9.94781C8.66283 10.0684 8.56311 10.1681 8.44147 10.1681ZM8.44147 9.85685C8.39105 9.85685 8.35051 9.8974 8.35051 9.94781C8.35051 9.99822 8.39105 10.0388 8.44147 10.0388C8.49188 10.0388 8.53242 9.99822 8.53242 9.94781C8.53242 9.8974 8.49188 9.85685 8.44147 9.85685Z" fill="white"/>
<path d="M8.23202 9.88184H7.82764V10.0122H8.23202V9.88184Z" fill="white"/>
<path d="M10.1687 12.9018H10.0394V9.97026L9.26025 9.19108V0.817383H9.39067V9.13738L10.1687 9.91656V12.9018Z" fill="white"/>
<path d="M11.7259 9.16444H11.5966V5.24444L12.3747 4.46526V2.18361L11.6339 1.44279H11.0388V1.31348H11.6887L12.5051 2.12991V4.51896L11.7259 5.29813V9.16444Z" fill="white"/>
<path d="M11.6888 13.901H10.8833V13.7717H11.634L12.3748 13.0309V6.82812H12.5052V13.0846L11.6888 13.901Z" fill="white"/>
<path d="M11.7259 12.2785H11.5966V11.5267L10.8174 10.7475V7.63302L10.0393 6.85494V4.4648L10.8371 3.66699L10.9292 3.75905L10.1686 4.5185V6.80124L10.9478 7.57932V10.6938L11.7259 11.473V12.2785Z" fill="white"/>
<path d="M10.1041 13.2784C9.98242 13.2784 9.88379 13.1798 9.88379 13.0582C9.88379 12.9365 9.98242 12.8379 10.1041 12.8379C10.2257 12.8379 10.3243 12.9365 10.3243 13.0582C10.3243 13.1787 10.2257 13.2784 10.1041 13.2784ZM10.1041 12.9672C10.0537 12.9672 10.0131 13.0078 10.0131 13.0582C10.0131 13.1086 10.0537 13.1491 10.1041 13.1491C10.1545 13.1491 10.195 13.1086 10.195 13.0582C10.195 13.0078 10.1545 12.9672 10.1041 12.9672Z" fill="white"/>
<path d="M10.8834 13.2784C10.7617 13.2784 10.6631 13.1798 10.6631 13.0582C10.6631 12.9365 10.7617 12.8379 10.8834 12.8379C11.005 12.8379 11.1036 12.9365 11.1036 13.0582C11.1036 13.1787 11.005 13.2784 10.8834 13.2784ZM10.8834 12.9672C10.8329 12.9672 10.7924 13.0078 10.7924 13.0582C10.7924 13.1086 10.8329 13.1491 10.8834 13.1491C10.9338 13.1491 10.9743 13.1086 10.9743 13.0582C10.9732 13.0078 10.9327 12.9672 10.8834 12.9672Z" fill="white"/>
<path d="M10.8834 12.4991C10.7617 12.4991 10.6631 12.4005 10.6631 12.2789C10.6631 12.1572 10.7617 12.0586 10.8834 12.0586C11.005 12.0586 11.1036 12.1572 11.1036 12.2789C11.1036 12.4005 11.005 12.4991 10.8834 12.4991ZM10.8834 12.1879C10.8329 12.1879 10.7924 12.2285 10.7924 12.2789C10.7924 12.3293 10.8329 12.3698 10.8834 12.3698C10.9338 12.3698 10.9743 12.3293 10.9743 12.2789C10.9732 12.2285 10.9327 12.1879 10.8834 12.1879Z" fill="white"/>
<path d="M11.6526 13.2784C11.531 13.2784 11.4324 13.1798 11.4324 13.0582C11.4324 12.9365 11.531 12.8379 11.6526 12.8379C11.7743 12.8379 11.8729 12.9365 11.8729 13.0582C11.8729 13.1787 11.7743 13.2784 11.6526 13.2784ZM11.6526 12.9672C11.6022 12.9672 11.5617 13.0078 11.5617 13.0582C11.5617 13.1086 11.6022 13.1491 11.6526 13.1491C11.7031 13.1491 11.7436 13.1086 11.7436 13.0582C11.7436 13.0078 11.702 12.9672 11.6526 12.9672Z" fill="white"/>
<path d="M12.4351 14.0607C12.3135 14.0607 12.2148 13.962 12.2148 13.8404C12.2148 13.7187 12.3135 13.6201 12.4351 13.6201C12.5568 13.6201 12.6554 13.7187 12.6554 13.8404C12.6565 13.962 12.5568 14.0607 12.4351 14.0607ZM12.4351 13.7494C12.3847 13.7494 12.3442 13.79 12.3442 13.8404C12.3442 13.8908 12.3847 13.9313 12.4351 13.9313C12.4855 13.9313 12.5261 13.8908 12.5261 13.8404C12.5261 13.79 12.4855 13.7494 12.4351 13.7494Z" fill="white"/>
<path d="M11.6614 9.54016C11.5398 9.54016 11.4412 9.44153 11.4412 9.31988C11.4412 9.19824 11.5398 9.09961 11.6614 9.09961C11.7831 9.09961 11.8817 9.19824 11.8817 9.31988C11.8817 9.44153 11.7831 9.54016 11.6614 9.54016ZM11.6614 9.22892C11.611 9.22892 11.5705 9.26947 11.5705 9.31988C11.5705 9.37029 11.611 9.41084 11.6614 9.41084C11.7118 9.41084 11.7524 9.37029 11.7524 9.31988C11.7524 9.26947 11.7118 9.22892 11.6614 9.22892Z" fill="white"/>
<path d="M10.1041 9.54016C9.98242 9.54016 9.88379 9.44153 9.88379 9.31988C9.88379 9.19824 9.98242 9.09961 10.1041 9.09961C10.2257 9.09961 10.3243 9.19824 10.3243 9.31988C10.3243 9.44153 10.2257 9.54016 10.1041 9.54016ZM10.1041 9.22892C10.0537 9.22892 10.0131 9.26947 10.0131 9.31988C10.0131 9.37029 10.0537 9.41084 10.1041 9.41084C10.1545 9.41084 10.195 9.37029 10.195 9.31988C10.195 9.26947 10.1545 9.22892 10.1041 9.22892Z" fill="white"/>
<path d="M10.8832 13.8362C10.8832 13.9568 10.7857 14.0543 10.6651 14.0543C10.5446 14.0543 10.447 13.9568 10.447 13.8362C10.447 13.7157 10.5446 13.6182 10.6651 13.6182C10.7857 13.6182 10.8832 13.7157 10.8832 13.8362Z" fill="white"/>
<path d="M10.3222 13.8362C10.3222 13.9568 10.2246 14.0543 10.1041 14.0543C9.98352 14.0543 9.88599 13.9568 9.88599 13.8362C9.88599 13.7157 9.98352 13.6182 10.1041 13.6182C10.2246 13.6182 10.3222 13.7157 10.3222 13.8362Z" fill="white"/>
<path d="M11.8795 12.4974C11.8795 12.6179 11.782 12.7155 11.6614 12.7155C11.5409 12.7155 11.4434 12.6179 11.4434 12.4974C11.4434 12.3768 11.5409 12.2793 11.6614 12.2793C11.782 12.2793 11.8795 12.3768 11.8795 12.4974Z" fill="white"/>
<path d="M12.2992 10.7298C12.2992 10.8503 12.2017 10.9479 12.0811 10.9479C11.9606 10.9479 11.863 10.8503 11.863 10.7298C11.863 10.6093 11.9606 10.5117 12.0811 10.5117C12.2017 10.5117 12.2992 10.6093 12.2992 10.7298Z" fill="white"/>
<path d="M11.1014 11.4935C11.1014 11.614 11.0039 11.7116 10.8834 11.7116C10.7628 11.7116 10.6653 11.614 10.6653 11.4935C10.6653 11.3729 10.7628 11.2754 10.8834 11.2754C11.0028 11.2754 11.1014 11.3729 11.1014 11.4935Z" fill="white"/>
<path d="M9.54407 10.7298C9.54407 10.8503 9.44654 10.9479 9.32599 10.9479C9.20545 10.9479 9.10791 10.8503 9.10791 10.7298C9.10791 10.6093 9.20545 10.5117 9.32599 10.5117C9.44654 10.5117 9.54407 10.6093 9.54407 10.7298Z" fill="white"/>
<path d="M9.90464 13.7275L9.26025 13.0843V10.9473H9.39067V13.0306L9.9956 13.6355L9.90464 13.7275Z" fill="white"/>
<path d="M10.1697 7.66406H10.0393V9.16324H10.1697V7.66406Z" fill="white"/>
<path d="M11.4432 12.9922H11.0388V13.1226H11.4432V12.9922Z" fill="white"/>
<path d="M11.3118 10.1681C11.1902 10.1681 11.0916 10.0695 11.0916 9.94781C11.0916 9.82617 11.1902 9.72754 11.3118 9.72754C11.4335 9.72754 11.5321 9.82617 11.5321 9.94781C11.5321 10.0684 11.4335 10.1681 11.3118 10.1681ZM11.3118 9.85685C11.2614 9.85685 11.2209 9.8974 11.2209 9.94781C11.2209 9.99822 11.2614 10.0388 11.3118 10.0388C11.3622 10.0388 11.4028 9.99822 11.4028 9.94781C11.4028 9.8974 11.3611 9.85685 11.3118 9.85685Z" fill="white"/>
<path d="M12.0811 10.1681C11.9595 10.1681 11.8608 10.0695 11.8608 9.94781C11.8608 9.82617 11.9595 9.72754 12.0811 9.72754C12.2028 9.72754 12.3014 9.82617 12.3014 9.94781C12.3014 10.0684 12.2028 10.1681 12.0811 10.1681ZM12.0811 9.85685C12.0307 9.85685 11.9902 9.8974 11.9902 9.94781C11.9902 9.99822 12.0307 10.0388 12.0811 10.0388C12.1315 10.0388 12.1721 9.99822 12.1721 9.94781C12.1721 9.8974 12.1304 9.85685 12.0811 9.85685Z" fill="white"/>
<path d="M11.8717 9.88184H11.4673V10.0122H11.8717V9.88184Z" fill="white"/>
<path d="M13.8079 12.9018H13.6775V9.97026L12.8994 9.19108V0.817383H13.0287V9.13738L13.8079 9.91656V12.9018Z" fill="white"/>
<path d="M15.3652 9.16444H15.2348V5.24444L16.014 4.46526V2.18361L15.2732 1.44279H14.677V1.31348H15.3269L16.1433 2.12991V4.51896L15.3652 5.29813V9.16444Z" fill="white"/>
<path d="M15.327 13.901H14.5215V13.7717H15.2733L16.0141 13.0309V6.82812H16.1434V13.0846L15.327 13.901Z" fill="white"/>
<path d="M15.3652 12.2785H15.2348V11.5267L14.4567 10.7475V7.63302L13.6775 6.85494V4.4648L14.4753 3.66699L14.5674 3.75905L13.8079 4.5185V6.80124L14.586 7.57932V10.6938L15.3652 11.473V12.2785Z" fill="white"/>
<path d="M13.7435 13.2784C13.6218 13.2784 13.5232 13.1798 13.5232 13.0582C13.5232 12.9365 13.6218 12.8379 13.7435 12.8379C13.8651 12.8379 13.9637 12.9365 13.9637 13.0582C13.9637 13.1787 13.8651 13.2784 13.7435 13.2784ZM13.7435 12.9672C13.6931 12.9672 13.6525 13.0078 13.6525 13.0582C13.6525 13.1086 13.6931 13.1491 13.7435 13.1491C13.7939 13.1491 13.8344 13.1086 13.8344 13.0582C13.8333 13.0078 13.7928 12.9672 13.7435 12.9672Z" fill="white"/>
<path d="M14.5215 13.2784C14.3999 13.2784 14.3013 13.1798 14.3013 13.0582C14.3013 12.9365 14.3999 12.8379 14.5215 12.8379C14.6432 12.8379 14.7418 12.9365 14.7418 13.0582C14.7429 13.1787 14.6432 13.2784 14.5215 13.2784ZM14.5215 12.9672C14.4711 12.9672 14.4306 13.0078 14.4306 13.0582C14.4306 13.1086 14.4711 13.1491 14.5215 13.1491C14.572 13.1491 14.6125 13.1086 14.6125 13.0582C14.6125 13.0078 14.572 12.9672 14.5215 12.9672Z" fill="white"/>
<path d="M14.5215 12.4991C14.3999 12.4991 14.3013 12.4005 14.3013 12.2789C14.3013 12.1572 14.3999 12.0586 14.5215 12.0586C14.6432 12.0586 14.7418 12.1572 14.7418 12.2789C14.7429 12.4005 14.6432 12.4991 14.5215 12.4991ZM14.5215 12.1879C14.4711 12.1879 14.4306 12.2285 14.4306 12.2789C14.4306 12.3293 14.4711 12.3698 14.5215 12.3698C14.572 12.3698 14.6125 12.3293 14.6125 12.2789C14.6125 12.2285 14.572 12.1879 14.5215 12.1879Z" fill="white"/>
<path d="M15.2908 13.2784C15.1692 13.2784 15.0706 13.1798 15.0706 13.0582C15.0706 12.9365 15.1692 12.8379 15.2908 12.8379C15.4125 12.8379 15.5111 12.9365 15.5111 13.0582C15.5122 13.1787 15.4125 13.2784 15.2908 13.2784ZM15.2908 12.9672C15.2404 12.9672 15.1999 13.0078 15.1999 13.0582C15.1999 13.1086 15.2404 13.1491 15.2908 13.1491C15.3412 13.1491 15.3818 13.1086 15.3818 13.0582C15.3818 13.0078 15.3412 12.9672 15.2908 12.9672Z" fill="white"/>
<path d="M16.0743 14.0607C15.9526 14.0607 15.854 13.962 15.854 13.8404C15.854 13.7187 15.9526 13.6201 16.0743 13.6201C16.1959 13.6201 16.2946 13.7187 16.2946 13.8404C16.2946 13.962 16.1959 14.0607 16.0743 14.0607ZM16.0743 13.7494C16.0239 13.7494 15.9833 13.79 15.9833 13.8404C15.9833 13.8908 16.0239 13.9313 16.0743 13.9313C16.1247 13.9313 16.1652 13.8908 16.1652 13.8404C16.1652 13.79 16.1247 13.7494 16.0743 13.7494Z" fill="white"/>
<path d="M15.3006 9.54016C15.179 9.54016 15.0803 9.44153 15.0803 9.31988C15.0803 9.19824 15.179 9.09961 15.3006 9.09961C15.4222 9.09961 15.5209 9.19824 15.5209 9.31988C15.5209 9.44153 15.4222 9.54016 15.3006 9.54016ZM15.3006 9.22892C15.2502 9.22892 15.2096 9.26947 15.2096 9.31988C15.2096 9.37029 15.2502 9.41084 15.3006 9.41084C15.351 9.41084 15.3916 9.37029 15.3916 9.31988C15.3916 9.26947 15.3499 9.22892 15.3006 9.22892Z" fill="white"/>
<path d="M13.7435 9.54016C13.6218 9.54016 13.5232 9.44153 13.5232 9.31988C13.5232 9.19824 13.6218 9.09961 13.7435 9.09961C13.8651 9.09961 13.9637 9.19824 13.9637 9.31988C13.9637 9.44153 13.8651 9.54016 13.7435 9.54016ZM13.7435 9.22892C13.6931 9.22892 13.6525 9.26947 13.6525 9.31988C13.6525 9.37029 13.6931 9.41084 13.7435 9.41084C13.7939 9.41084 13.8344 9.37029 13.8344 9.31988C13.8344 9.26947 13.7928 9.22892 13.7435 9.22892Z" fill="white"/>
<path d="M14.5214 13.8362C14.5214 13.9568 14.4238 14.0543 14.3033 14.0543C14.1827 14.0543 14.0852 13.9568 14.0852 13.8362C14.0852 13.7157 14.1827 13.6182 14.3033 13.6182C14.4238 13.6182 14.5214 13.7157 14.5214 13.8362Z" fill="white"/>
<path d="M13.9616 13.8362C13.9616 13.9568 13.864 14.0543 13.7435 14.0543C13.6229 14.0543 13.5254 13.9568 13.5254 13.8362C13.5254 13.7157 13.6229 13.6182 13.7435 13.6182C13.864 13.6182 13.9616 13.7157 13.9616 13.8362Z" fill="white"/>
<path d="M15.5187 12.4974C15.5187 12.6179 15.4211 12.7155 15.3006 12.7155C15.1801 12.7155 15.0825 12.6179 15.0825 12.4974C15.0825 12.3768 15.1801 12.2793 15.3006 12.2793C15.4211 12.2793 15.5187 12.3768 15.5187 12.4974Z" fill="white"/>
<path d="M15.9374 10.7298C15.9374 10.8503 15.8399 10.9479 15.7193 10.9479C15.5988 10.9479 15.5012 10.8503 15.5012 10.7298C15.5012 10.6093 15.5988 10.5117 15.7193 10.5117C15.8399 10.5117 15.9374 10.6093 15.9374 10.7298Z" fill="white"/>
<path d="M14.7396 11.4935C14.7396 11.614 14.6421 11.7116 14.5215 11.7116C14.401 11.7116 14.3035 11.614 14.3035 11.4935C14.3035 11.3729 14.401 11.2754 14.5215 11.2754C14.6421 11.2754 14.7396 11.3729 14.7396 11.4935Z" fill="white"/>
<path d="M13.1823 10.7298C13.1823 10.8503 13.0847 10.9479 12.9642 10.9479C12.8436 10.9479 12.7461 10.8503 12.7461 10.7298C12.7461 10.6093 12.8436 10.5117 12.9642 10.5117C13.0847 10.5117 13.1823 10.6093 13.1823 10.7298Z" fill="white"/>
<path d="M13.5427 13.7275L12.8994 13.0843V10.9473H13.0287V13.0306L13.6348 13.6355L13.5427 13.7275Z" fill="white"/>
<path d="M13.8079 7.66406H13.6775V9.16324H13.8079V7.66406Z" fill="white"/>
<path d="M15.0814 12.9922H14.677V13.1226H15.0814V12.9922Z" fill="white"/>
<path d="M14.95 10.1681C14.8284 10.1681 14.7297 10.0695 14.7297 9.94781C14.7297 9.82617 14.8284 9.72754 14.95 9.72754C15.0717 9.72754 15.1703 9.82617 15.1703 9.94781C15.1714 10.0684 15.0717 10.1681 14.95 10.1681ZM14.95 9.85685C14.8996 9.85685 14.8591 9.8974 14.8591 9.94781C14.8591 9.99822 14.8996 10.0388 14.95 10.0388C15.0004 10.0388 15.041 9.99822 15.041 9.94781C15.041 9.8974 15.0004 9.85685 14.95 9.85685Z" fill="white"/>
<path d="M15.7193 10.1681C15.5977 10.1681 15.499 10.0695 15.499 9.94781C15.499 9.82617 15.5977 9.72754 15.7193 9.72754C15.8409 9.72754 15.9396 9.82617 15.9396 9.94781C15.9407 10.0684 15.8409 10.1681 15.7193 10.1681ZM15.7193 9.85685C15.6689 9.85685 15.6283 9.8974 15.6283 9.94781C15.6283 9.99822 15.6689 10.0388 15.7193 10.0388C15.7697 10.0388 15.8103 9.99822 15.8103 9.94781C15.8103 9.8974 15.7697 9.85685 15.7193 9.85685Z" fill="white"/>
<path d="M15.5099 9.88184H15.1055V10.0122H15.5099V9.88184Z" fill="white"/>
<path d="M17.4477 12.9018H17.3173V9.97026L16.5381 9.19108V0.817383H16.6685V9.13738L17.4477 9.91656V12.9018Z" fill="white"/>
<path d="M19.0049 9.16444H18.8745V5.24444L19.6525 4.46526V2.18361L18.9128 1.44279H18.3167V1.31348H18.9665L19.783 2.12991V4.51896L19.0049 5.29813V9.16444Z" fill="white"/>
<path d="M18.9666 13.901H18.1611V13.7717H18.9129L19.6526 13.0309V6.82812H19.7831V13.0846L18.9666 13.901Z" fill="white"/>
<path d="M19.0048 12.2785H18.8744V11.5267L18.0952 10.7475V7.63302L17.3171 6.85494V4.4648L18.1149 3.66699L18.207 3.75905L17.4475 4.5185V6.80124L18.2256 7.57932V10.6938L19.0048 11.473V12.2785Z" fill="white"/>
<path d="M17.3819 13.2784C17.2603 13.2784 17.1616 13.1798 17.1616 13.0582C17.1616 12.9365 17.2603 12.8379 17.3819 12.8379C17.5035 12.8379 17.6022 12.9365 17.6022 13.0582C17.6033 13.1787 17.5035 13.2784 17.3819 13.2784ZM17.3819 12.9672C17.3315 12.9672 17.2909 13.0078 17.2909 13.0582C17.2909 13.1086 17.3315 13.1491 17.3819 13.1491C17.4323 13.1491 17.4729 13.1086 17.4729 13.0582C17.4729 13.0078 17.4323 12.9672 17.3819 12.9672Z" fill="white"/>
<path d="M18.1612 13.2784C18.0395 13.2784 17.9409 13.1798 17.9409 13.0582C17.9409 12.9365 18.0395 12.8379 18.1612 12.8379C18.2828 12.8379 18.3815 12.9365 18.3815 13.0582C18.3815 13.1787 18.2828 13.2784 18.1612 13.2784ZM18.1612 12.9672C18.1108 12.9672 18.0702 13.0078 18.0702 13.0582C18.0702 13.1086 18.1108 13.1491 18.1612 13.1491C18.2116 13.1491 18.2522 13.1086 18.2522 13.0582C18.2522 13.0078 18.2105 12.9672 18.1612 12.9672Z" fill="white"/>
<path d="M18.1612 12.4991C18.0395 12.4991 17.9409 12.4005 17.9409 12.2789C17.9409 12.1572 18.0395 12.0586 18.1612 12.0586C18.2828 12.0586 18.3815 12.1572 18.3815 12.2789C18.3815 12.4005 18.2828 12.4991 18.1612 12.4991ZM18.1612 12.1879C18.1108 12.1879 18.0702 12.2285 18.0702 12.2789C18.0702 12.3293 18.1108 12.3698 18.1612 12.3698C18.2116 12.3698 18.2522 12.3293 18.2522 12.2789C18.2522 12.2285 18.2105 12.1879 18.1612 12.1879Z" fill="white"/>
<path d="M17.3819 9.54016C17.2603 9.54016 17.1616 9.44153 17.1616 9.31988C17.1616 9.19824 17.2603 9.09961 17.3819 9.09961C17.5035 9.09961 17.6022 9.19824 17.6022 9.31988C17.6033 9.44153 17.5035 9.54016 17.3819 9.54016ZM17.3819 9.22892C17.3315 9.22892 17.2909 9.26947 17.2909 9.31988C17.2909 9.37029 17.3315 9.41084 17.3819 9.41084C17.4323 9.41084 17.4729 9.37029 17.4729 9.31988C17.4729 9.26947 17.4323 9.22892 17.3819 9.22892Z" fill="white"/>
<path d="M18.161 13.8362C18.161 13.9568 18.0635 14.0543 17.9429 14.0543C17.8224 14.0543 17.7249 13.9568 17.7249 13.8362C17.7249 13.7157 17.8224 13.6182 17.9429 13.6182C18.0635 13.6182 18.161 13.7157 18.161 13.8362Z" fill="white"/>
<path d="M17.6 13.8362C17.6 13.9568 17.5024 14.0543 17.3819 14.0543C17.2614 14.0543 17.1638 13.9568 17.1638 13.8362C17.1638 13.7157 17.2614 13.6182 17.3819 13.6182C17.5024 13.6182 17.6 13.7157 17.6 13.8362Z" fill="white"/>
<path d="M18.3793 11.4935C18.3793 11.614 18.2817 11.7116 18.1612 11.7116C18.0407 11.7116 17.9431 11.614 17.9431 11.4935C17.9431 11.3729 18.0407 11.2754 18.1612 11.2754C18.2817 11.2754 18.3793 11.3729 18.3793 11.4935Z" fill="white"/>
<path d="M16.8219 10.7298C16.8219 10.8503 16.7244 10.9479 16.6038 10.9479C16.4833 10.9479 16.3857 10.8503 16.3857 10.7298C16.3857 10.6093 16.4833 10.5117 16.6038 10.5117C16.7244 10.5117 16.8219 10.6093 16.8219 10.7298Z" fill="white"/>
<path d="M17.1825 13.7275L16.5381 13.0843V10.9473H16.6685V13.0306L17.2745 13.6355L17.1825 13.7275Z" fill="white"/>
<path d="M17.4475 7.66406H17.3171V9.16324H17.4475V7.66406Z" fill="white"/>
<path d="M18.721 12.9922H18.3167V13.1226H18.721V12.9922Z" fill="white"/>
<path d="M18.5897 10.1681C18.468 10.1681 18.3694 10.0695 18.3694 9.94781C18.3694 9.82617 18.468 9.72754 18.5897 9.72754C18.7113 9.72754 18.8099 9.82617 18.8099 9.94781C18.8099 10.0684 18.7113 10.1681 18.5897 10.1681ZM18.5897 9.85685C18.5392 9.85685 18.4987 9.8974 18.4987 9.94781C18.4987 9.99822 18.5392 10.0388 18.5897 10.0388C18.6401 10.0388 18.6806 9.99822 18.6806 9.94781C18.6806 9.8974 18.639 9.85685 18.5897 9.85685Z" fill="white"/>
<path d="M2.89067 26.6233H2.76136V23.6918L1.98218 22.9137V14.54H2.11259V22.8589L2.89067 23.6381V26.6233Z" fill="white"/>
<path d="M4.44798 22.8861H4.31867V18.9661L5.09675 18.188V15.9053L4.35593 15.1645H3.75977V15.0352H4.40963L5.22716 15.8516V18.2417L4.44798 19.0198V22.8861Z" fill="white"/>
<path d="M4.40973 27.6226H3.60425V27.4932H4.35603L5.09685 26.7524V20.5508H5.22726V26.8061L4.40973 27.6226Z" fill="white"/>
<path d="M4.44805 26.0001H4.31874V25.2483L3.53956 24.4702V21.3557L2.76147 20.5765V18.1875L3.55819 17.3896L3.65024 17.4817L2.89079 18.2412V20.5228L3.66997 21.302V24.4154L4.44805 25.1946V26.0001Z" fill="white"/>
<path d="M3.60431 15.3214C3.48266 15.3214 3.38403 15.2228 3.38403 15.1011C3.38403 14.9795 3.48266 14.8809 3.60431 14.8809C3.72595 14.8809 3.82458 14.9795 3.82458 15.1011C3.82458 15.2228 3.72595 15.3214 3.60431 15.3214ZM3.60431 15.0091C3.5539 15.0091 3.51335 15.0496 3.51335 15.1C3.51335 15.1504 3.5539 15.191 3.60431 15.191C3.65472 15.191 3.69527 15.1504 3.69527 15.1C3.69527 15.0496 3.65472 15.0091 3.60431 15.0091Z" fill="white"/>
<path d="M3.60431 20.1075C3.48266 20.1075 3.38403 20.0089 3.38403 19.8873C3.38403 19.7656 3.48266 19.667 3.60431 19.667C3.72595 19.667 3.82458 19.7656 3.82458 19.8873C3.82568 20.0078 3.72595 20.1075 3.60431 20.1075ZM3.60431 19.7963C3.5539 19.7963 3.51335 19.8369 3.51335 19.8873C3.51335 19.9377 3.5539 19.9782 3.60431 19.9782C3.65472 19.9782 3.69527 19.9377 3.69527 19.8873C3.69527 19.8369 3.65472 19.7963 3.60431 19.7963Z" fill="white"/>
<path d="M5.16144 15.3214C5.03979 15.3214 4.94116 15.2228 4.94116 15.1011C4.94116 14.9795 5.03979 14.8809 5.16144 14.8809C5.28308 14.8809 5.38171 14.9795 5.38171 15.1011C5.38171 15.2228 5.28308 15.3214 5.16144 15.3214ZM5.16144 15.0091C5.11103 15.0091 5.07048 15.0496 5.07048 15.1C5.07048 15.1504 5.11103 15.191 5.16144 15.191C5.21185 15.191 5.2524 15.1504 5.2524 15.1C5.2524 15.0496 5.21185 15.0091 5.16144 15.0091Z" fill="white"/>
<path d="M5.16144 20.6154C5.03979 20.6154 4.94116 20.5167 4.94116 20.3951C4.94116 20.2734 5.03979 20.1748 5.16144 20.1748C5.28308 20.1748 5.38171 20.2734 5.38171 20.3951C5.38281 20.5167 5.28308 20.6154 5.16144 20.6154ZM5.16144 20.3041C5.11103 20.3041 5.07048 20.3447 5.07048 20.3951C5.07048 20.4455 5.11103 20.486 5.16144 20.486C5.21185 20.486 5.2524 20.4455 5.2524 20.3951C5.2524 20.3447 5.21185 20.3041 5.16144 20.3041Z" fill="white"/>
<path d="M4.38336 23.2628C4.26172 23.2628 4.16309 23.1642 4.16309 23.0425C4.16309 22.9209 4.26172 22.8223 4.38336 22.8223C4.505 22.8223 4.60363 22.9209 4.60363 23.0425C4.60363 23.1631 4.505 23.2628 4.38336 23.2628ZM4.38336 22.9505C4.33295 22.9505 4.2924 22.991 4.2924 23.0414C4.2924 23.0919 4.33295 23.1324 4.38336 23.1324C4.43377 23.1324 4.47432 23.0919 4.47432 23.0414C4.47432 22.991 4.43377 22.9505 4.38336 22.9505Z" fill="white"/>
<path d="M2.82623 23.2628C2.70459 23.2628 2.60596 23.1642 2.60596 23.0425C2.60596 22.9209 2.70459 22.8223 2.82623 22.8223C2.94788 22.8223 3.04651 22.9209 3.04651 23.0425C3.04651 23.1631 2.94788 23.2628 2.82623 23.2628ZM2.82623 22.9505C2.77582 22.9505 2.73527 22.991 2.73527 23.0414C2.73527 23.0919 2.77582 23.1324 2.82623 23.1324C2.87664 23.1324 2.91719 23.0919 2.91719 23.0414C2.91719 22.991 2.87664 22.9505 2.82623 22.9505Z" fill="white"/>
<path d="M2.82623 21.4513C2.70459 21.4513 2.60596 21.3527 2.60596 21.231C2.60596 21.1094 2.70459 21.0107 2.82623 21.0107C2.94788 21.0107 3.04651 21.1094 3.04651 21.231C3.04651 21.3527 2.94788 21.4513 2.82623 21.4513ZM2.82623 21.1401C2.77582 21.1401 2.73527 21.1806 2.73527 21.231C2.73527 21.2814 2.77582 21.322 2.82623 21.322C2.87664 21.322 2.91719 21.2814 2.91719 21.231C2.91719 21.1806 2.87664 21.1401 2.82623 21.1401Z" fill="white"/>
<path d="M2.82623 16.8956C2.70459 16.8956 2.60596 16.797 2.60596 16.6754C2.60596 16.5537 2.70459 16.4551 2.82623 16.4551C2.94788 16.4551 3.04651 16.5537 3.04651 16.6754C3.04651 16.7959 2.94788 16.8956 2.82623 16.8956ZM2.82623 16.5833C2.77582 16.5833 2.73527 16.6238 2.73527 16.6743C2.73527 16.7247 2.77582 16.7652 2.82623 16.7652C2.87664 16.7652 2.91719 16.7247 2.91719 16.6743C2.91719 16.6238 2.87664 16.5833 2.82623 16.5833Z" fill="white"/>
<path d="M3.82239 17.4359C3.82239 17.5564 3.72486 17.6539 3.60431 17.6539C3.48376 17.6539 3.38623 17.5564 3.38623 17.4359C3.38623 17.3153 3.48376 17.2178 3.60431 17.2178C3.72486 17.2178 3.82239 17.3153 3.82239 17.4359Z" fill="white"/>
<path d="M3.60431 16.1188C3.72476 16.1188 3.82239 16.0211 3.82239 15.9007C3.82239 15.7803 3.72476 15.6826 3.60431 15.6826C3.48387 15.6826 3.38623 15.7803 3.38623 15.9007C3.38623 16.0211 3.48387 16.1188 3.60431 16.1188Z" fill="white"/>
<path d="M2.89079 16.5189H2.76147V15.0734L3.57791 14.2559H4.40969L5.05189 14.8981L4.95983 14.9901L4.356 14.3863H3.63161L2.89079 15.1271V16.5189Z" fill="white"/>
<path d="M2.89189 21.3867H2.76147V22.8859H2.89189V21.3867Z" fill="white"/>
<path d="M3.66996 19.7309H3.53955V18.966L4.30887 18.1967V16.7019L3.66777 16.0608L3.75982 15.9688L4.43928 16.6482V18.2504L3.66996 19.0197V19.7309Z" fill="white"/>
<path d="M6.53007 26.6233H6.39966V23.6918L5.62158 22.9137V14.54H5.7509V22.8589L6.53007 23.6381V26.6233Z" fill="white"/>
<path d="M8.08739 22.8861H7.95698V18.9661L8.73616 18.188V15.9053L7.99533 15.1645H7.39917V15.0352H8.04903L8.86547 15.8516V18.2417L8.08739 19.0198V22.8861Z" fill="white"/>
<path d="M8.04913 27.6226H7.24365V27.4932H7.99543L8.73626 26.7524V20.5508H8.86557V26.8061L8.04913 27.6226Z" fill="white"/>
<path d="M8.08733 26.0001H7.95692V25.2483L7.17884 24.4702V21.3557L6.39966 20.5765V18.1875L7.19747 17.3896L7.28952 17.4817L6.53007 18.2412V20.5228L7.30815 21.302V24.4154L8.08733 25.1946V26.0001Z" fill="white"/>
<path d="M7.24371 15.3214C7.12207 15.3214 7.02344 15.2228 7.02344 15.1011C7.02344 14.9795 7.12207 14.8809 7.24371 14.8809C7.36536 14.8809 7.46399 14.9795 7.46399 15.1011C7.46399 15.2228 7.36536 15.3214 7.24371 15.3214ZM7.24371 15.0091C7.1933 15.0091 7.15275 15.0496 7.15275 15.1C7.15275 15.1504 7.1933 15.191 7.24371 15.191C7.29412 15.191 7.33467 15.1504 7.33467 15.1C7.33467 15.0496 7.29412 15.0091 7.24371 15.0091Z" fill="white"/>
<path d="M7.24371 20.1075C7.12207 20.1075 7.02344 20.0089 7.02344 19.8873C7.02344 19.7656 7.12207 19.667 7.24371 19.667C7.36536 19.667 7.46399 19.7656 7.46399 19.8873C7.46399 20.0078 7.36536 20.1075 7.24371 20.1075ZM7.24371 19.7963C7.1933 19.7963 7.15275 19.8369 7.15275 19.8873C7.15275 19.9377 7.1933 19.9782 7.24371 19.9782C7.29412 19.9782 7.33467 19.9377 7.33467 19.8873C7.33467 19.8369 7.29412 19.7963 7.24371 19.7963Z" fill="white"/>
<path d="M8.80084 15.3214C8.6792 15.3214 8.58057 15.2228 8.58057 15.1011C8.58057 14.9795 8.6792 14.8809 8.80084 14.8809C8.92248 14.8809 9.02111 14.9795 9.02111 15.1011C9.02111 15.2228 8.92248 15.3214 8.80084 15.3214ZM8.80084 15.0091C8.75043 15.0091 8.70988 15.0496 8.70988 15.1C8.70988 15.1504 8.75043 15.191 8.80084 15.191C8.85125 15.191 8.8918 15.1504 8.8918 15.1C8.8918 15.0496 8.85125 15.0091 8.80084 15.0091Z" fill="white"/>
<path d="M8.80084 20.6154C8.6792 20.6154 8.58057 20.5167 8.58057 20.3951C8.58057 20.2734 8.6792 20.1748 8.80084 20.1748C8.92248 20.1748 9.02111 20.2734 9.02111 20.3951C9.02111 20.5167 8.92248 20.6154 8.80084 20.6154ZM8.80084 20.3041C8.75043 20.3041 8.70988 20.3447 8.70988 20.3951C8.70988 20.4455 8.75043 20.486 8.80084 20.486C8.85125 20.486 8.8918 20.4455 8.8918 20.3951C8.8918 20.3447 8.85125 20.3041 8.80084 20.3041Z" fill="white"/>
<path d="M8.02179 23.2628C7.90014 23.2628 7.80151 23.1642 7.80151 23.0425C7.80151 22.9209 7.90014 22.8223 8.02179 22.8223C8.14343 22.8223 8.24206 22.9209 8.24206 23.0425C8.24316 23.1631 8.14453 23.2628 8.02179 23.2628ZM8.02179 22.9505C7.97138 22.9505 7.93083 22.991 7.93083 23.0414C7.93083 23.0919 7.97138 23.1324 8.02179 23.1324C8.0722 23.1324 8.11275 23.0919 8.11275 23.0414C8.11275 22.991 8.0722 22.9505 8.02179 22.9505Z" fill="white"/>
<path d="M6.46441 23.2628C6.34277 23.2628 6.24414 23.1642 6.24414 23.0425C6.24414 22.9209 6.34277 22.8223 6.46441 22.8223C6.58606 22.8223 6.68469 22.9209 6.68469 23.0425C6.68578 23.1631 6.58715 23.2628 6.46441 23.2628ZM6.46441 22.9505C6.414 22.9505 6.37346 22.991 6.37346 23.0414C6.37346 23.0919 6.414 23.1324 6.46441 23.1324C6.51482 23.1324 6.55537 23.0919 6.55537 23.0414C6.55537 22.991 6.51482 22.9505 6.46441 22.9505Z" fill="white"/>
<path d="M6.46441 21.4513C6.34277 21.4513 6.24414 21.3527 6.24414 21.231C6.24414 21.1094 6.34277 21.0107 6.46441 21.0107C6.58606 21.0107 6.68469 21.1094 6.68469 21.231C6.68578 21.3527 6.58715 21.4513 6.46441 21.4513ZM6.46441 21.1401C6.414 21.1401 6.37346 21.1806 6.37346 21.231C6.37346 21.2814 6.414 21.322 6.46441 21.322C6.51482 21.322 6.55537 21.2814 6.55537 21.231C6.55537 21.1806 6.51482 21.1401 6.46441 21.1401Z" fill="white"/>
<path d="M6.46441 16.8956C6.34277 16.8956 6.24414 16.797 6.24414 16.6754C6.24414 16.5537 6.34277 16.4551 6.46441 16.4551C6.58606 16.4551 6.68469 16.5537 6.68469 16.6754C6.68578 16.7959 6.58715 16.8956 6.46441 16.8956ZM6.46441 16.5833C6.414 16.5833 6.37346 16.6238 6.37346 16.6743C6.37346 16.7247 6.414 16.7652 6.46441 16.7652C6.51482 16.7652 6.55537 16.7247 6.55537 16.6743C6.55537 16.6238 6.51482 16.5833 6.46441 16.5833Z" fill="white"/>
<path d="M5.90443 14.3216C5.90443 14.4421 5.80689 14.5397 5.68634 14.5397C5.5658 14.5397 5.46826 14.4421 5.46826 14.3216C5.46826 14.201 5.5658 14.1035 5.68634 14.1035C5.80689 14.1035 5.90443 14.201 5.90443 14.3216Z" fill="white"/>
<path d="M7.4618 17.4359C7.4618 17.5564 7.36426 17.6539 7.24372 17.6539C7.12317 17.6539 7.02563 17.5564 7.02563 17.4359C7.02563 17.3153 7.12317 17.2178 7.24372 17.2178C7.36426 17.2178 7.4618 17.3153 7.4618 17.4359Z" fill="white"/>
<path d="M7.24372 16.1188C7.36416 16.1188 7.4618 16.0211 7.4618 15.9007C7.4618 15.7803 7.36416 15.6826 7.24372 15.6826C7.12327 15.6826 7.02563 15.7803 7.02563 15.9007C7.02563 16.0211 7.12327 16.1188 7.24372 16.1188Z" fill="white"/>
<path d="M6.53007 16.5189H6.39966V15.0734L7.2161 14.2559H8.04897L8.69116 14.8981L8.59911 14.9901L7.99527 14.3863H7.27089L6.53007 15.1271V16.5189Z" fill="white"/>
<path d="M6.53007 21.3867H6.39966V22.8859H6.53007V21.3867Z" fill="white"/>
<path d="M7.30827 19.7309H7.17896V18.966L7.94827 18.1967V16.7019L7.30717 16.0608L7.39923 15.9688L8.07758 16.6482V18.2504L7.30827 19.0197V19.7309Z" fill="white"/>
<path d="M10.1687 26.6233H10.0394V23.6918L9.26025 22.9137V14.54H9.39067V22.8589L10.1687 23.6381V26.6233Z" fill="white"/>
<path d="M11.7259 22.8861H11.5966V18.9661L12.3747 18.188V15.9053L11.6339 15.1645H11.0388V15.0352H11.6887L12.5051 15.8516V18.2417L11.7259 19.0198V22.8861Z" fill="white"/>
<path d="M11.6888 27.6226H10.8833V27.4932H11.634L12.3748 26.7524V20.5508H12.5052V26.8061L11.6888 27.6226Z" fill="white"/>
<path d="M11.7259 26.0001H11.5966V25.2483L10.8174 24.4702V21.3557L10.0393 20.5765V18.1875L10.8371 17.3896L10.9292 17.4817L10.1686 18.2412V20.5228L10.9478 21.302V24.4154L11.7259 25.1946V26.0001Z" fill="white"/>
<path d="M10.8834 15.3214C10.7617 15.3214 10.6631 15.2228 10.6631 15.1011C10.6631 14.9795 10.7617 14.8809 10.8834 14.8809C11.005 14.8809 11.1036 14.9795 11.1036 15.1011C11.1036 15.2228 11.005 15.3214 10.8834 15.3214ZM10.8834 15.0091C10.8329 15.0091 10.7924 15.0496 10.7924 15.1C10.7924 15.1504 10.8329 15.191 10.8834 15.191C10.9338 15.191 10.9743 15.1504 10.9743 15.1C10.9743 15.0496 10.9327 15.0091 10.8834 15.0091Z" fill="white"/>
<path d="M10.8834 20.1075C10.7617 20.1075 10.6631 20.0089 10.6631 19.8873C10.6631 19.7656 10.7617 19.667 10.8834 19.667C11.005 19.667 11.1036 19.7656 11.1036 19.8873C11.1036 20.0078 11.005 20.1075 10.8834 20.1075ZM10.8834 19.7963C10.8329 19.7963 10.7924 19.8369 10.7924 19.8873C10.7924 19.9377 10.8329 19.9782 10.8834 19.9782C10.9338 19.9782 10.9743 19.9377 10.9743 19.8873C10.9732 19.8369 10.9327 19.7963 10.8834 19.7963Z" fill="white"/>
<path d="M12.4405 15.3214C12.3188 15.3214 12.2202 15.2228 12.2202 15.1011C12.2202 14.9795 12.3188 14.8809 12.4405 14.8809C12.5621 14.8809 12.6608 14.9795 12.6608 15.1011C12.6608 15.2228 12.5621 15.3214 12.4405 15.3214ZM12.4405 15.0091C12.3901 15.0091 12.3495 15.0496 12.3495 15.1C12.3495 15.1504 12.3901 15.191 12.4405 15.191C12.4909 15.191 12.5314 15.1504 12.5314 15.1C12.5314 15.0496 12.4898 15.0091 12.4405 15.0091Z" fill="white"/>
<path d="M12.4405 20.6154C12.3188 20.6154 12.2202 20.5167 12.2202 20.3951C12.2202 20.2734 12.3188 20.1748 12.4405 20.1748C12.5621 20.1748 12.6608 20.2734 12.6608 20.3951C12.6608 20.5167 12.5621 20.6154 12.4405 20.6154ZM12.4405 20.3041C12.3901 20.3041 12.3495 20.3447 12.3495 20.3951C12.3495 20.4455 12.3901 20.486 12.4405 20.486C12.4909 20.486 12.5314 20.4455 12.5314 20.3951C12.5314 20.3447 12.4898 20.3041 12.4405 20.3041Z" fill="white"/>
<path d="M11.6614 23.2628C11.5398 23.2628 11.4412 23.1642 11.4412 23.0425C11.4412 22.9209 11.5398 22.8223 11.6614 22.8223C11.7831 22.8223 11.8817 22.9209 11.8817 23.0425C11.8817 23.1631 11.7831 23.2628 11.6614 23.2628ZM11.6614 22.9505C11.611 22.9505 11.5705 22.991 11.5705 23.0414C11.5705 23.0919 11.611 23.1324 11.6614 23.1324C11.7118 23.1324 11.7524 23.0919 11.7524 23.0414C11.7524 22.991 11.7118 22.9505 11.6614 22.9505Z" fill="white"/>
<path d="M10.1041 23.2628C9.98242 23.2628 9.88379 23.1642 9.88379 23.0425C9.88379 22.9209 9.98242 22.8223 10.1041 22.8223C10.2257 22.8223 10.3243 22.9209 10.3243 23.0425C10.3243 23.1631 10.2257 23.2628 10.1041 23.2628ZM10.1041 22.9505C10.0537 22.9505 10.0131 22.991 10.0131 23.0414C10.0131 23.0919 10.0537 23.1324 10.1041 23.1324C10.1545 23.1324 10.195 23.0919 10.195 23.0414C10.195 22.991 10.1545 22.9505 10.1041 22.9505Z" fill="white"/>
<path d="M10.1041 21.4513C9.98242 21.4513 9.88379 21.3527 9.88379 21.231C9.88379 21.1094 9.98242 21.0107 10.1041 21.0107C10.2257 21.0107 10.3243 21.1094 10.3243 21.231C10.3243 21.3527 10.2257 21.4513 10.1041 21.4513ZM10.1041 21.1401C10.0537 21.1401 10.0131 21.1806 10.0131 21.231C10.0131 21.2814 10.0537 21.322 10.1041 21.322C10.1545 21.322 10.195 21.2814 10.195 21.231C10.195 21.1806 10.1545 21.1401 10.1041 21.1401Z" fill="white"/>
<path d="M10.1041 16.8956C9.98242 16.8956 9.88379 16.797 9.88379 16.6754C9.88379 16.5537 9.98242 16.4551 10.1041 16.4551C10.2257 16.4551 10.3243 16.5537 10.3243 16.6754C10.3243 16.7959 10.2257 16.8956 10.1041 16.8956ZM10.1041 16.5833C10.0537 16.5833 10.0131 16.6238 10.0131 16.6743C10.0131 16.7247 10.0537 16.7652 10.1041 16.7652C10.1545 16.7652 10.195 16.7247 10.195 16.6743C10.195 16.6238 10.1545 16.5833 10.1041 16.5833Z" fill="white"/>
<path d="M9.54407 14.3216C9.54407 14.4421 9.44654 14.5397 9.32599 14.5397C9.20545 14.5397 9.10791 14.4421 9.10791 14.3216C9.10791 14.201 9.20545 14.1035 9.32599 14.1035C9.44654 14.1035 9.54407 14.201 9.54407 14.3216Z" fill="white"/>
<path d="M11.1014 17.4359C11.1014 17.5564 11.0039 17.6539 10.8834 17.6539C10.7628 17.6539 10.6653 17.5564 10.6653 17.4359C10.6653 17.3153 10.7628 17.2178 10.8834 17.2178C11.0028 17.2178 11.1014 17.3153 11.1014 17.4359Z" fill="white"/>
<path d="M10.8834 16.1188C11.0038 16.1188 11.1014 16.0211 11.1014 15.9007C11.1014 15.7803 11.0038 15.6826 10.8834 15.6826C10.7629 15.6826 10.6653 15.7803 10.6653 15.9007C10.6653 16.0211 10.7629 16.1188 10.8834 16.1188Z" fill="white"/>
<path d="M10.1686 16.5189H10.0393V15.0734L10.8557 14.2559H11.6886L12.3297 14.8981L12.2388 14.9901L11.6338 14.3863H10.9094L10.1686 15.1271V16.5189Z" fill="white"/>
<path d="M10.1697 21.3867H10.0393V22.8859H10.1697V21.3867Z" fill="white"/>
<path d="M10.948 19.7309H10.8176V18.966L11.5869 18.1967V16.7019L10.9469 16.0608L11.0379 15.9688L11.7174 16.6482V18.2504L10.948 19.0197V19.7309Z" fill="white"/>
<path d="M13.8079 26.6233H13.6775V23.6918L12.8994 22.9137V14.54H13.0287V22.8589L13.8079 23.6381V26.6233Z" fill="white"/>
<path d="M15.3652 22.8861H15.2348V18.9661L16.014 18.188V15.9053L15.2732 15.1645H14.677V15.0352H15.3269L16.1433 15.8516V18.2417L15.3652 19.0198V22.8861Z" fill="white"/>
<path d="M15.327 27.6226H14.5215V27.4932H15.2733L16.0141 26.7524V20.5508H16.1434V26.8061L15.327 27.6226Z" fill="white"/>
<path d="M15.3652 26.0001H15.2348V25.2483L14.4567 24.4702V21.3557L13.6775 20.5765V18.1875L14.4753 17.3896L14.5674 17.4817L13.8079 18.2412V20.5228L14.586 21.302V24.4154L15.3652 25.1946V26.0001Z" fill="white"/>
<path d="M14.5215 15.3214C14.3999 15.3214 14.3013 15.2228 14.3013 15.1011C14.3013 14.9795 14.3999 14.8809 14.5215 14.8809C14.6432 14.8809 14.7418 14.9795 14.7418 15.1011C14.7418 15.2228 14.6432 15.3214 14.5215 15.3214ZM14.5215 15.0091C14.4711 15.0091 14.4306 15.0496 14.4306 15.1C14.4306 15.1504 14.4711 15.191 14.5215 15.191C14.572 15.191 14.6125 15.1504 14.6125 15.1C14.6125 15.0496 14.572 15.0091 14.5215 15.0091Z" fill="white"/>
<path d="M14.5215 20.1075C14.3999 20.1075 14.3013 20.0089 14.3013 19.8873C14.3013 19.7656 14.3999 19.667 14.5215 19.667C14.6432 19.667 14.7418 19.7656 14.7418 19.8873C14.7429 20.0078 14.6432 20.1075 14.5215 20.1075ZM14.5215 19.7963C14.4711 19.7963 14.4306 19.8369 14.4306 19.8873C14.4306 19.9377 14.4711 19.9782 14.5215 19.9782C14.572 19.9782 14.6125 19.9377 14.6125 19.8873C14.6125 19.8369 14.572 19.7963 14.5215 19.7963Z" fill="white"/>
<path d="M16.0787 15.3214C15.957 15.3214 15.8584 15.2228 15.8584 15.1011C15.8584 14.9795 15.957 14.8809 16.0787 14.8809C16.2003 14.8809 16.2989 14.9795 16.2989 15.1011C16.2989 15.2228 16.2003 15.3214 16.0787 15.3214ZM16.0787 15.0091C16.0283 15.0091 15.9877 15.0496 15.9877 15.1C15.9877 15.1504 16.0283 15.191 16.0787 15.191C16.1291 15.191 16.1696 15.1504 16.1696 15.1C16.1696 15.0496 16.1291 15.0091 16.0787 15.0091Z" fill="white"/>
<path d="M16.0787 20.6154C15.957 20.6154 15.8584 20.5167 15.8584 20.3951C15.8584 20.2734 15.957 20.1748 16.0787 20.1748C16.2003 20.1748 16.2989 20.2734 16.2989 20.3951C16.3 20.5167 16.2003 20.6154 16.0787 20.6154ZM16.0787 20.3041C16.0283 20.3041 15.9877 20.3447 15.9877 20.3951C15.9877 20.4455 16.0283 20.486 16.0787 20.486C16.1291 20.486 16.1696 20.4455 16.1696 20.3951C16.1696 20.3447 16.1291 20.3041 16.0787 20.3041Z" fill="white"/>
<path d="M15.3006 23.2628C15.179 23.2628 15.0803 23.1642 15.0803 23.0425C15.0803 22.9209 15.179 22.8223 15.3006 22.8223C15.4222 22.8223 15.5209 22.9209 15.5209 23.0425C15.5209 23.1631 15.4222 23.2628 15.3006 23.2628ZM15.3006 22.9505C15.2502 22.9505 15.2096 22.991 15.2096 23.0414C15.2096 23.0919 15.2502 23.1324 15.3006 23.1324C15.351 23.1324 15.3916 23.0919 15.3916 23.0414C15.3916 22.991 15.3499 22.9505 15.3006 22.9505Z" fill="white"/>
<path d="M13.7435 23.2628C13.6218 23.2628 13.5232 23.1642 13.5232 23.0425C13.5232 22.9209 13.6218 22.8223 13.7435 22.8223C13.8651 22.8223 13.9637 22.9209 13.9637 23.0425C13.9637 23.1631 13.8651 23.2628 13.7435 23.2628ZM13.7435 22.9505C13.6931 22.9505 13.6525 22.991 13.6525 23.0414C13.6525 23.0919 13.6931 23.1324 13.7435 23.1324C13.7939 23.1324 13.8344 23.0919 13.8344 23.0414C13.8344 22.991 13.7928 22.9505 13.7435 22.9505Z" fill="white"/>
<path d="M13.7435 21.4513C13.6218 21.4513 13.5232 21.3527 13.5232 21.231C13.5232 21.1094 13.6218 21.0107 13.7435 21.0107C13.8651 21.0107 13.9637 21.1094 13.9637 21.231C13.9637 21.3527 13.8651 21.4513 13.7435 21.4513ZM13.7435 21.1401C13.6931 21.1401 13.6525 21.1806 13.6525 21.231C13.6525 21.2814 13.6931 21.322 13.7435 21.322C13.7939 21.322 13.8344 21.2814 13.8344 21.231C13.8333 21.1806 13.7928 21.1401 13.7435 21.1401Z" fill="white"/>
<path d="M13.7435 16.8956C13.6218 16.8956 13.5232 16.797 13.5232 16.6754C13.5232 16.5537 13.6218 16.4551 13.7435 16.4551C13.8651 16.4551 13.9637 16.5537 13.9637 16.6754C13.9637 16.7959 13.8651 16.8956 13.7435 16.8956ZM13.7435 16.5833C13.6931 16.5833 13.6525 16.6238 13.6525 16.6743C13.6525 16.7247 13.6931 16.7652 13.7435 16.7652C13.7939 16.7652 13.8344 16.7247 13.8344 16.6743C13.8344 16.6238 13.7928 16.5833 13.7435 16.5833Z" fill="white"/>
<path d="M13.1823 14.3216C13.1823 14.4421 13.0847 14.5397 12.9642 14.5397C12.8436 14.5397 12.7461 14.4421 12.7461 14.3216C12.7461 14.201 12.8436 14.1035 12.9642 14.1035C13.0847 14.1035 13.1823 14.201 13.1823 14.3216Z" fill="white"/>
<path d="M14.7396 17.4359C14.7396 17.5564 14.6421 17.6539 14.5215 17.6539C14.401 17.6539 14.3035 17.5564 14.3035 17.4359C14.3035 17.3153 14.401 17.2178 14.5215 17.2178C14.6421 17.2178 14.7396 17.3153 14.7396 17.4359Z" fill="white"/>
<path d="M14.5215 16.1188C14.642 16.1188 14.7396 16.0211 14.7396 15.9007C14.7396 15.7803 14.642 15.6826 14.5215 15.6826C14.4011 15.6826 14.3035 15.7803 14.3035 15.9007C14.3035 16.0211 14.4011 16.1188 14.5215 16.1188Z" fill="white"/>
<path d="M13.8079 16.5189H13.6775V15.0734L14.495 14.2559H15.3268L15.969 14.8981L15.8769 14.9901L15.2731 14.3863H14.5487L13.8079 15.1271V16.5189Z" fill="white"/>
<path d="M13.8079 21.3867H13.6775V22.8859H13.8079V21.3867Z" fill="white"/>
<path d="M14.5861 19.7309H14.4568V18.966L15.2261 18.1967V16.7019L14.585 16.0608L14.6771 15.9688L15.3565 16.6482V18.2504L14.5861 19.0197V19.7309Z" fill="white"/>
<path d="M17.4477 26.6233H17.3173V23.6918L16.5381 22.9137V14.54H16.6685V22.8589L17.4477 23.6381V26.6233Z" fill="white"/>
<path d="M19.0049 22.8861H18.8745V18.9661L19.6525 18.188V15.9053L18.9128 15.1645H18.3167V15.0352H18.9665L19.783 15.8516V18.2417L19.0049 19.0198V22.8861Z" fill="white"/>
<path d="M18.9666 27.6226H18.1611V27.4932H18.9129L19.6526 26.7524V20.5508H19.7831V26.8061L18.9666 27.6226Z" fill="white"/>
<path d="M19.0048 26.0001H18.8744V25.2483L18.0952 24.4702V21.3557L17.3171 20.5765V18.1875L18.1149 17.3896L18.207 17.4817L17.4475 18.2412V20.5228L18.2256 21.302V24.4154L19.0048 25.1946V26.0001Z" fill="white"/>
<path d="M18.1612 15.3214C18.0395 15.3214 17.9409 15.2228 17.9409 15.1011C17.9409 14.9795 18.0395 14.8809 18.1612 14.8809C18.2828 14.8809 18.3815 14.9795 18.3815 15.1011C18.3815 15.2228 18.2828 15.3214 18.1612 15.3214ZM18.1612 15.0091C18.1108 15.0091 18.0702 15.0496 18.0702 15.1C18.0702 15.1504 18.1108 15.191 18.1612 15.191C18.2116 15.191 18.2522 15.1504 18.2522 15.1C18.2522 15.0496 18.2105 15.0091 18.1612 15.0091Z" fill="white"/>
<path d="M18.1612 20.1075C18.0395 20.1075 17.9409 20.0089 17.9409 19.8873C17.9409 19.7656 18.0395 19.667 18.1612 19.667C18.2828 19.667 18.3815 19.7656 18.3815 19.8873C18.3815 20.0078 18.2828 20.1075 18.1612 20.1075ZM18.1612 19.7963C18.1108 19.7963 18.0702 19.8369 18.0702 19.8873C18.0702 19.9377 18.1108 19.9782 18.1612 19.9782C18.2116 19.9782 18.2522 19.9377 18.2522 19.8873C18.2522 19.8369 18.2105 19.7963 18.1612 19.7963Z" fill="white"/>
<path d="M17.3819 23.2628C17.2603 23.2628 17.1616 23.1642 17.1616 23.0425C17.1616 22.9209 17.2603 22.8223 17.3819 22.8223C17.5035 22.8223 17.6022 22.9209 17.6022 23.0425C17.6033 23.1631 17.5035 23.2628 17.3819 23.2628ZM17.3819 22.9505C17.3315 22.9505 17.2909 22.991 17.2909 23.0414C17.2909 23.0919 17.3315 23.1324 17.3819 23.1324C17.4323 23.1324 17.4729 23.0919 17.4729 23.0414C17.4729 22.991 17.4323 22.9505 17.3819 22.9505Z" fill="white"/>
<path d="M17.3819 21.4513C17.2603 21.4513 17.1616 21.3527 17.1616 21.231C17.1616 21.1094 17.2603 21.0107 17.3819 21.0107C17.5035 21.0107 17.6022 21.1094 17.6022 21.231C17.6033 21.3527 17.5035 21.4513 17.3819 21.4513ZM17.3819 21.1401C17.3315 21.1401 17.2909 21.1806 17.2909 21.231C17.2909 21.2814 17.3315 21.322 17.3819 21.322C17.4323 21.322 17.4729 21.2814 17.4729 21.231C17.4729 21.1806 17.4323 21.1401 17.3819 21.1401Z" fill="white"/>
<path d="M17.3819 16.8956C17.2603 16.8956 17.1616 16.797 17.1616 16.6754C17.1616 16.5537 17.2603 16.4551 17.3819 16.4551C17.5035 16.4551 17.6022 16.5537 17.6022 16.6754C17.6033 16.7959 17.5035 16.8956 17.3819 16.8956ZM17.3819 16.5833C17.3315 16.5833 17.2909 16.6238 17.2909 16.6743C17.2909 16.7247 17.3315 16.7652 17.3819 16.7652C17.4323 16.7652 17.4729 16.7247 17.4729 16.6743C17.4729 16.6238 17.4323 16.5833 17.3819 16.5833Z" fill="white"/>
<path d="M16.8219 14.3216C16.8219 14.4421 16.7244 14.5397 16.6038 14.5397C16.4833 14.5397 16.3857 14.4421 16.3857 14.3216C16.3857 14.201 16.4833 14.1035 16.6038 14.1035C16.7244 14.1035 16.8219 14.201 16.8219 14.3216Z" fill="white"/>
<path d="M18.3793 17.4359C18.3793 17.5564 18.2817 17.6539 18.1612 17.6539C18.0407 17.6539 17.9431 17.5564 17.9431 17.4359C17.9431 17.3153 18.0407 17.2178 18.1612 17.2178C18.2817 17.2178 18.3793 17.3153 18.3793 17.4359Z" fill="white"/>
<path d="M18.1612 16.1188C18.2816 16.1188 18.3793 16.0211 18.3793 15.9007C18.3793 15.7803 18.2816 15.6826 18.1612 15.6826C18.0408 15.6826 17.9431 15.7803 17.9431 15.9007C17.9431 16.0211 18.0408 16.1188 18.1612 16.1188Z" fill="white"/>
<path d="M17.4475 16.5189H17.3171V15.0734L18.1336 14.2559H18.9665L19.6086 14.8981L19.5166 14.9901L18.9128 14.3863H18.1873L17.4475 15.1271V16.5189Z" fill="white"/>
<path d="M17.4475 21.3867H17.3171V22.8859H17.4475V21.3867Z" fill="white"/>
<path d="M18.2259 19.7309H18.0955V18.966L18.8659 18.1967V16.7019L18.2248 16.0608L18.3168 15.9688L18.9952 16.6482V18.2504L18.2259 19.0197V19.7309Z" fill="white"/>
</g>
<path d="M19.0422 8.66699H23.0346V23.0714H19.0422V8.66699Z" fill="#1A2A55"/>
<mask id="mask1_3481_20382" style="mask-type:luminance" maskUnits="userSpaceOnUse" x="19" y="8" width="5" height="16">
<path d="M19.042 8.66797H23.0343V23.0724H19.042V8.66797Z" fill="white"/>
</mask>
<g mask="url(#mask1_3481_20382)">
<path d="M18.5893 9.16639H18.4589V5.24639L19.2381 4.46721V2.18557L18.4973 1.44474H17.9011V1.31543H18.551L19.3685 2.13187V4.52091L18.5893 5.30009V9.16639Z" fill="white"/>
<path d="M18.5511 13.903H17.7456V13.7736H18.4974L19.2382 13.0328V6.83008H19.3686V13.0865L18.5511 13.903Z" fill="white"/>
<path d="M19.2984 14.0626C19.1768 14.0626 19.0781 13.964 19.0781 13.8423C19.0781 13.7207 19.1768 13.6221 19.2984 13.6221C19.42 13.6221 19.5187 13.7207 19.5187 13.8423C19.5187 13.964 19.42 14.0626 19.2984 14.0626ZM19.2984 13.7514C19.248 13.7514 19.2074 13.7919 19.2074 13.8423C19.2074 13.8928 19.248 13.9333 19.2984 13.9333C19.3488 13.9333 19.3894 13.8928 19.3894 13.8423C19.3894 13.7919 19.3488 13.7514 19.2984 13.7514Z" fill="white"/>
<path d="M19.1615 10.7318C19.1615 10.8523 19.064 10.9498 18.9434 10.9498C18.8229 10.9498 18.7253 10.8523 18.7253 10.7318C18.7253 10.6112 18.8229 10.5137 18.9434 10.5137C19.064 10.5137 19.1615 10.6112 19.1615 10.7318Z" fill="white"/>
<path d="M18.9434 10.17C18.8218 10.17 18.7231 10.0714 18.7231 9.94977C18.7231 9.82812 18.8218 9.72949 18.9434 9.72949C19.0651 9.72949 19.1637 9.82812 19.1637 9.94977C19.1648 10.0703 19.0651 10.17 18.9434 10.17ZM18.9434 9.85881C18.893 9.85881 18.8525 9.89935 18.8525 9.94977C18.8525 10.0002 18.893 10.0407 18.9434 10.0407C18.9938 10.0407 19.0344 10.0002 19.0344 9.94977C19.0344 9.89935 18.9938 9.85881 18.9434 9.85881Z" fill="white"/>
<path d="M20.6714 12.9037H20.541V9.97221L19.7629 9.19303V0.819336H19.8923V9.13934L20.6714 9.91851V12.9037Z" fill="white"/>
<path d="M22.2287 9.16639H22.0983V5.24639L22.8775 4.46721V2.18557L22.1367 1.44474H21.5405V1.31543H22.1904L23.0068 2.13187V4.52091L22.2287 5.30009V9.16639Z" fill="white"/>
<path d="M22.1905 13.903H21.385V13.7736H22.1368L22.8776 13.0328V6.83008H23.0069V13.0865L22.1905 13.903Z" fill="white"/>
<path d="M22.2287 12.2805H22.0983V11.5287L21.3202 10.7495V7.63497L20.541 6.85689V4.46675L21.3388 3.66895L21.4309 3.761L20.6714 4.52045V6.80319L21.4495 7.58127V10.6958L22.2287 11.475V12.2805Z" fill="white"/>
<path d="M20.6058 13.2804C20.4841 13.2804 20.3855 13.1818 20.3855 13.0601C20.3855 12.9385 20.4841 12.8398 20.6058 12.8398C20.7274 12.8398 20.826 12.9385 20.826 13.0601C20.8271 13.1807 20.7274 13.2804 20.6058 13.2804ZM20.6058 12.9692C20.5554 12.9692 20.5148 13.0097 20.5148 13.0601C20.5148 13.1105 20.5554 13.1511 20.6058 13.1511C20.6562 13.1511 20.6967 13.1105 20.6967 13.0601C20.6967 13.0097 20.6562 12.9692 20.6058 12.9692Z" fill="white"/>
<path d="M21.3851 13.2804C21.2634 13.2804 21.1648 13.1818 21.1648 13.0601C21.1648 12.9385 21.2634 12.8398 21.3851 12.8398C21.5067 12.8398 21.6053 12.9385 21.6053 13.0601C21.6053 13.1807 21.5067 13.2804 21.3851 13.2804ZM21.3851 12.9692C21.3347 12.9692 21.2941 13.0097 21.2941 13.0601C21.2941 13.1105 21.3347 13.1511 21.3851 13.1511C21.4355 13.1511 21.476 13.1105 21.476 13.0601C21.476 13.0097 21.4355 12.9692 21.3851 12.9692Z" fill="white"/>
<path d="M21.3851 12.5011C21.2634 12.5011 21.1648 12.4025 21.1648 12.2808C21.1648 12.1592 21.2634 12.0605 21.3851 12.0605C21.5067 12.0605 21.6053 12.1592 21.6053 12.2808C21.6053 12.4025 21.5067 12.5011 21.3851 12.5011ZM21.3851 12.1899C21.3347 12.1899 21.2941 12.2304 21.2941 12.2808C21.2941 12.3312 21.3347 12.3718 21.3851 12.3718C21.4355 12.3718 21.476 12.3312 21.476 12.2808C21.476 12.2304 21.4355 12.1899 21.3851 12.1899Z" fill="white"/>
<path d="M22.1544 13.2804C22.0327 13.2804 21.9341 13.1818 21.9341 13.0601C21.9341 12.9385 22.0327 12.8398 22.1544 12.8398C22.276 12.8398 22.3746 12.9385 22.3746 13.0601C22.3746 13.1807 22.276 13.2804 22.1544 13.2804ZM22.1544 12.9692C22.1039 12.9692 22.0634 13.0097 22.0634 13.0601C22.0634 13.1105 22.1039 13.1511 22.1544 13.1511C22.2048 13.1511 22.2453 13.1105 22.2453 13.0601C22.2453 13.0097 22.2048 12.9692 22.1544 12.9692Z" fill="white"/>
<path d="M22.9378 14.0626C22.8162 14.0626 22.7175 13.964 22.7175 13.8423C22.7175 13.7207 22.8162 13.6221 22.9378 13.6221C23.0594 13.6221 23.1581 13.7207 23.1581 13.8423C23.1581 13.964 23.0594 14.0626 22.9378 14.0626ZM22.9378 13.7514C22.8874 13.7514 22.8468 13.7919 22.8468 13.8423C22.8468 13.8928 22.8874 13.9333 22.9378 13.9333C22.9882 13.9333 23.0288 13.8928 23.0288 13.8423C23.0288 13.7919 22.9871 13.7514 22.9378 13.7514Z" fill="white"/>
<path d="M22.1631 9.54211C22.0415 9.54211 21.9429 9.44348 21.9429 9.32184C21.9429 9.20019 22.0415 9.10156 22.1631 9.10156C22.2848 9.10156 22.3834 9.20019 22.3834 9.32184C22.3845 9.44348 22.2848 9.54211 22.1631 9.54211ZM22.1631 9.23088C22.1127 9.23088 22.0722 9.27142 22.0722 9.32184C22.0722 9.37225 22.1127 9.41279 22.1631 9.41279C22.2136 9.41279 22.2541 9.37225 22.2541 9.32184C22.2541 9.27142 22.2136 9.23088 22.1631 9.23088Z" fill="white"/>
<path d="M20.6058 9.54211C20.4841 9.54211 20.3855 9.44348 20.3855 9.32184C20.3855 9.20019 20.4841 9.10156 20.6058 9.10156C20.7274 9.10156 20.826 9.20019 20.826 9.32184C20.8271 9.44348 20.7274 9.54211 20.6058 9.54211ZM20.6058 9.23088C20.5554 9.23088 20.5148 9.27142 20.5148 9.32184C20.5148 9.37225 20.5554 9.41279 20.6058 9.41279C20.6562 9.41279 20.6967 9.37225 20.6967 9.32184C20.6967 9.27142 20.6562 9.23088 20.6058 9.23088Z" fill="white"/>
<path d="M21.3849 13.8382C21.3849 13.9587 21.2874 14.0563 21.1668 14.0563C21.0463 14.0563 20.9487 13.9587 20.9487 13.8382C20.9487 13.7177 21.0463 13.6201 21.1668 13.6201C21.2874 13.6201 21.3849 13.7177 21.3849 13.8382Z" fill="white"/>
<path d="M20.8239 13.8382C20.8239 13.9587 20.7263 14.0563 20.6058 14.0563C20.4852 14.0563 20.3877 13.9587 20.3877 13.8382C20.3877 13.7177 20.4852 13.6201 20.6058 13.6201C20.7263 13.6201 20.8239 13.7177 20.8239 13.8382Z" fill="white"/>
<path d="M22.3812 12.4993C22.3812 12.6199 22.2837 12.7174 22.1632 12.7174C22.0426 12.7174 21.9451 12.6199 21.9451 12.4993C21.9451 12.3788 22.0426 12.2812 22.1632 12.2812C22.2837 12.2812 22.3812 12.3788 22.3812 12.4993Z" fill="white"/>
<path d="M22.8009 10.7318C22.8009 10.8523 22.7034 10.9498 22.5828 10.9498C22.4623 10.9498 22.3647 10.8523 22.3647 10.7318C22.3647 10.6112 22.4623 10.5137 22.5828 10.5137C22.7034 10.5137 22.8009 10.6112 22.8009 10.7318Z" fill="white"/>
<path d="M21.6032 11.4954C21.6032 11.616 21.5056 11.7135 21.3851 11.7135C21.2645 11.7135 21.167 11.616 21.167 11.4954C21.167 11.3749 21.2645 11.2773 21.3851 11.2773C21.5056 11.2773 21.6032 11.3749 21.6032 11.4954Z" fill="white"/>
<path d="M20.0458 10.7318C20.0458 10.8523 19.9482 10.9498 19.8277 10.9498C19.7072 10.9498 19.6096 10.8523 19.6096 10.7318C19.6096 10.6112 19.7072 10.5137 19.8277 10.5137C19.9482 10.5137 20.0458 10.6112 20.0458 10.7318Z" fill="white"/>
<path d="M20.4062 13.7295L19.7629 13.0862V10.9492H19.8923V13.0325L20.4983 13.6374L20.4062 13.7295Z" fill="white"/>
<path d="M20.6714 7.66602H20.541V9.16519H20.6714V7.66602Z" fill="white"/>
<path d="M21.9449 12.9941H21.5405V13.1246H21.9449V12.9941Z" fill="white"/>
<path d="M21.8135 10.17C21.6919 10.17 21.5933 10.0714 21.5933 9.94977C21.5933 9.82812 21.6919 9.72949 21.8135 9.72949C21.9352 9.72949 22.0338 9.82812 22.0338 9.94977C22.0338 10.0703 21.9352 10.17 21.8135 10.17ZM21.8135 9.85881C21.7631 9.85881 21.7226 9.89935 21.7226 9.94977C21.7226 10.0002 21.7631 10.0407 21.8135 10.0407C21.8639 10.0407 21.9045 10.0002 21.9045 9.94977C21.9045 9.89935 21.8629 9.85881 21.8135 9.85881Z" fill="white"/>
<path d="M22.5828 10.17C22.4612 10.17 22.3625 10.0714 22.3625 9.94977C22.3625 9.82812 22.4612 9.72949 22.5828 9.72949C22.7045 9.72949 22.8031 9.82812 22.8031 9.94977C22.8031 10.0703 22.7045 10.17 22.5828 10.17ZM22.5828 9.85881C22.5324 9.85881 22.4919 9.89935 22.4919 9.94977C22.4919 10.0002 22.5324 10.0407 22.5828 10.0407C22.6332 10.0407 22.6738 10.0002 22.6738 9.94977C22.6738 9.89935 22.6332 9.85881 22.5828 9.85881Z" fill="white"/>
<path d="M22.3734 9.88379H21.969V10.0142H22.3734V9.88379Z" fill="white"/>
<path d="M18.5893 22.8861H18.4589V18.9661L19.2381 18.188V15.9053L18.4973 15.1645H17.9011V15.0352H18.551L19.3685 15.8516V18.2417L18.5893 19.0198V22.8861Z" fill="white"/>
<path d="M18.5511 27.6226H17.7456V27.4932H18.4974L19.2382 26.7524V20.5508H19.3686V26.8061L18.5511 27.6226Z" fill="white"/>
<path d="M19.3028 15.3214C19.1811 15.3214 19.0825 15.2228 19.0825 15.1011C19.0825 14.9795 19.1811 14.8809 19.3028 14.8809C19.4244 14.8809 19.5231 14.9795 19.5231 15.1011C19.5231 15.2228 19.4244 15.3214 19.3028 15.3214ZM19.3028 15.0091C19.2524 15.0091 19.2118 15.0496 19.2118 15.1C19.2118 15.1504 19.2524 15.191 19.3028 15.191C19.3532 15.191 19.3938 15.1504 19.3938 15.1C19.3938 15.0496 19.3532 15.0091 19.3028 15.0091Z" fill="white"/>
<path d="M19.3028 20.6154C19.1811 20.6154 19.0825 20.5167 19.0825 20.3951C19.0825 20.2734 19.1811 20.1748 19.3028 20.1748C19.4244 20.1748 19.5231 20.2734 19.5231 20.3951C19.5242 20.5167 19.4244 20.6154 19.3028 20.6154ZM19.3028 20.3041C19.2524 20.3041 19.2118 20.3447 19.2118 20.3951C19.2118 20.4455 19.2524 20.486 19.3028 20.486C19.3532 20.486 19.3938 20.4455 19.3938 20.3951C19.3938 20.3447 19.3532 20.3041 19.3028 20.3041Z" fill="white"/>
<path d="M17.032 16.5189H16.9016V15.0734L17.7191 14.2559H18.5509L19.1931 14.8981L19.1011 14.9901L18.4972 14.3863H17.7728L17.032 15.1271V16.5189Z" fill="white"/>
<path d="M20.6714 26.6233H20.541V23.6918L19.7629 22.9137V14.54H19.8923V22.8589L20.6714 23.6381V26.6233Z" fill="white"/>
<path d="M22.2287 22.8861H22.0983V18.9661L22.8775 18.188V15.9053L22.1367 15.1645H21.5405V15.0352H22.1904L23.0068 15.8516V18.2417L22.2287 19.0198V22.8861Z" fill="white"/>
<path d="M22.1905 27.6226H21.385V27.4932H22.1368L22.8776 26.7524V20.5508H23.0069V26.8061L22.1905 27.6226Z" fill="white"/>
<path d="M22.2287 26.0001H22.0983V25.2483L21.3202 24.4702V21.3557L20.541 20.5765V18.1875L21.3388 17.3896L21.4309 17.4817L20.6714 18.2412V20.5228L21.4495 21.302V24.4154L22.2287 25.1946V26.0001Z" fill="white"/>
<path d="M21.3851 15.3214C21.2634 15.3214 21.1648 15.2228 21.1648 15.1011C21.1648 14.9795 21.2634 14.8809 21.3851 14.8809C21.5067 14.8809 21.6053 14.9795 21.6053 15.1011C21.6053 15.2228 21.5067 15.3214 21.3851 15.3214ZM21.3851 15.0091C21.3347 15.0091 21.2941 15.0496 21.2941 15.1C21.2941 15.1504 21.3347 15.191 21.3851 15.191C21.4355 15.191 21.476 15.1504 21.476 15.1C21.476 15.0496 21.4355 15.0091 21.3851 15.0091Z" fill="white"/>
<path d="M21.3851 20.1075C21.2634 20.1075 21.1648 20.0089 21.1648 19.8873C21.1648 19.7656 21.2634 19.667 21.3851 19.667C21.5067 19.667 21.6053 19.7656 21.6053 19.8873C21.6053 20.0078 21.5067 20.1075 21.3851 20.1075ZM21.3851 19.7963C21.3347 19.7963 21.2941 19.8369 21.2941 19.8873C21.2941 19.9377 21.3347 19.9782 21.3851 19.9782C21.4355 19.9782 21.476 19.9377 21.476 19.8873C21.476 19.8369 21.4355 19.7963 21.3851 19.7963Z" fill="white"/>
<path d="M22.9422 15.3214C22.8206 15.3214 22.7219 15.2228 22.7219 15.1011C22.7219 14.9795 22.8206 14.8809 22.9422 14.8809C23.0638 14.8809 23.1625 14.9795 23.1625 15.1011C23.1625 15.2228 23.0638 15.3214 22.9422 15.3214ZM22.9422 15.0091C22.8918 15.0091 22.8512 15.0496 22.8512 15.1C22.8512 15.1504 22.8918 15.191 22.9422 15.191C22.9926 15.191 23.0332 15.1504 23.0332 15.1C23.0332 15.0496 22.9915 15.0091 22.9422 15.0091Z" fill="white"/>
<path d="M22.9422 20.6154C22.8206 20.6154 22.7219 20.5167 22.7219 20.3951C22.7219 20.2734 22.8206 20.1748 22.9422 20.1748C23.0638 20.1748 23.1625 20.2734 23.1625 20.3951C23.1625 20.5167 23.0638 20.6154 22.9422 20.6154ZM22.9422 20.3041C22.8918 20.3041 22.8512 20.3447 22.8512 20.3951C22.8512 20.4455 22.8918 20.486 22.9422 20.486C22.9926 20.486 23.0332 20.4455 23.0332 20.3951C23.0332 20.3447 22.9915 20.3041 22.9422 20.3041Z" fill="white"/>
<path d="M22.1631 23.2628C22.0415 23.2628 21.9429 23.1642 21.9429 23.0425C21.9429 22.9209 22.0415 22.8223 22.1631 22.8223C22.2848 22.8223 22.3834 22.9209 22.3834 23.0425C22.3845 23.1631 22.2848 23.2628 22.1631 23.2628ZM22.1631 22.9505C22.1127 22.9505 22.0722 22.991 22.0722 23.0414C22.0722 23.0919 22.1127 23.1324 22.1631 23.1324C22.2136 23.1324 22.2541 23.0919 22.2541 23.0414C22.2541 22.991 22.2136 22.9505 22.1631 22.9505Z" fill="white"/>
<path d="M20.6058 23.2628C20.4841 23.2628 20.3855 23.1642 20.3855 23.0425C20.3855 22.9209 20.4841 22.8223 20.6058 22.8223C20.7274 22.8223 20.826 22.9209 20.826 23.0425C20.8271 23.1631 20.7274 23.2628 20.6058 23.2628ZM20.6058 22.9505C20.5554 22.9505 20.5148 22.991 20.5148 23.0414C20.5148 23.0919 20.5554 23.1324 20.6058 23.1324C20.6562 23.1324 20.6967 23.0919 20.6967 23.0414C20.6967 22.991 20.6562 22.9505 20.6058 22.9505Z" fill="white"/>
<path d="M20.6058 21.4513C20.4841 21.4513 20.3855 21.3527 20.3855 21.231C20.3855 21.1094 20.4841 21.0107 20.6058 21.0107C20.7274 21.0107 20.826 21.1094 20.826 21.231C20.8271 21.3527 20.7274 21.4513 20.6058 21.4513ZM20.6058 21.1401C20.5554 21.1401 20.5148 21.1806 20.5148 21.231C20.5148 21.2814 20.5554 21.322 20.6058 21.322C20.6562 21.322 20.6967 21.2814 20.6967 21.231C20.6967 21.1806 20.6562 21.1401 20.6058 21.1401Z" fill="white"/>
<path d="M20.6058 16.8956C20.4841 16.8956 20.3855 16.797 20.3855 16.6754C20.3855 16.5537 20.4841 16.4551 20.6058 16.4551C20.7274 16.4551 20.826 16.5537 20.826 16.6754C20.8271 16.7959 20.7274 16.8956 20.6058 16.8956ZM20.6058 16.5833C20.5554 16.5833 20.5148 16.6238 20.5148 16.6743C20.5148 16.7247 20.5554 16.7652 20.6058 16.7652C20.6562 16.7652 20.6967 16.7247 20.6967 16.6743C20.6967 16.6238 20.6562 16.5833 20.6058 16.5833Z" fill="white"/>
<path d="M20.0458 14.3216C20.0458 14.4421 19.9482 14.5397 19.8277 14.5397C19.7072 14.5397 19.6096 14.4421 19.6096 14.3216C19.6096 14.201 19.7072 14.1035 19.8277 14.1035C19.9482 14.1035 20.0458 14.201 20.0458 14.3216Z" fill="white"/>
<path d="M21.6032 17.4359C21.6032 17.5564 21.5056 17.6539 21.3851 17.6539C21.2645 17.6539 21.167 17.5564 21.167 17.4359C21.167 17.3153 21.2645 17.2178 21.3851 17.2178C21.5056 17.2178 21.6032 17.3153 21.6032 17.4359Z" fill="white"/>
<path d="M21.3851 16.1188C21.5055 16.1188 21.6032 16.0211 21.6032 15.9007C21.6032 15.7803 21.5055 15.6826 21.3851 15.6826C21.2646 15.6826 21.167 15.7803 21.167 15.9007C21.167 16.0211 21.2646 16.1188 21.3851 16.1188Z" fill="white"/>
<path d="M20.6714 16.5189H20.541V15.0734L21.3575 14.2559H22.1903L22.8325 14.8981L22.7405 14.9901L22.1366 14.3863H21.4112L20.6714 15.1271V16.5189Z" fill="white"/>
<path d="M20.6714 21.3867H20.541V22.8859H20.6714V21.3867Z" fill="white"/>
<path d="M21.4496 19.7309H21.3203V18.966L22.0896 18.1967V16.7019L21.4485 16.0608L21.5406 15.9688L22.2189 16.6482V18.2504L21.4496 19.0197V19.7309Z" fill="white"/>
</g>
</svg>
